<svg class="chart" viewBox="0 0 720 315" role="img" aria-label="A grid of 355 small dots, one for every 43-yard field goal attempted in the NFL from 2015 to 2024. Two hundred and eighty-five are green for made and seventy are red for missed. One red dot at the right edge is circled in gold and labelled as Cody Parkey&#8217;s kick of 6 January 2019, with the note that it is red now but was no colour at all with ten seconds left."><text x="0" y="16" font-family="'Roboto Mono',monospace" font-size="12.5" fill="#1a1208">EVERY 43-YARD FIELD GOAL IN TEN NFL SEASONS</text><text x="0" y="33" font-family="'Roboto Mono',monospace" font-size="10.5" fill="#6b5e4a">355 kicks. 285 went through, 70 did not. The law of large numbers made this picture,</text><text x="0" y="49" font-family="'Roboto Mono',monospace" font-size="10.5" fill="#6b5e4a">and it is a good picture. It had nothing whatever to say about which dot was yours.</text><circle cx="90.0" cy="98.0" r="3.9" fill="#2a6e3f" opacity="0.9"/><circle cx="100.2" cy="98.0" r="3.9" fill="#2a6e3f" opacity="0.9"/><circle cx="110.4" cy="98.0" r="3.9" fill="#2a6e3f" opacity="0.9"/><circle cx="120.6" cy="98.0" r="3.9" fill="#2a6e3f" opacity="0.9"/><circle cx="130.8" cy="98.0" r="3.9" fill="#2a6e3f" opacity="0.9"/><circle cx="141.0" cy="98.0" r="3.9" fill="#2a6e3f" opacity="0.9"/><circle cx="151.2" cy="98.0" r="3.9" fill="#2a6e3f" opacity="0.9"/><circle cx="161.4" cy="98.0" r="3.9" fill="#2a6e3f" opacity="0.9"/><circle cx="171.6" cy="98.0" r="3.9" fill="#2a6e3f" opacity="0.9"/><circle cx="181.8" cy="98.0" r="3.9" fill="#2a6e3f" opacity="0.9"/><circle cx="192.0" cy="98.0" r="3.9" fill="#2a6e3f" opacity="0.9"/><circle cx="202.2" cy="98.0" r="3.9" fill="#2a6e3f" opacity="0.9"/><circle cx="212.4" cy="98.0" r="3.9" fill="#2a6e3f" opacity="0.9"/><circle cx="222.6" cy="98.0" r="3.9" fill="#2a6e3f" opacity="0.9"/><circle cx="232.8" cy="98.0" r="3.9" fill="#2a6e3f" opacity="0.9"/><circle cx="243.0" cy="98.0" r="3.9" fill="#2a6e3f" opacity="0.9"/><circle cx="253.2" cy="98.0" r="3.9" fill="#2a6e3f" opacity="0.9"/><circle cx="263.4" cy="98.0" r="3.9" fill="#2a6e3f" opacity="0.9"/><circle cx="273.6" cy="98.0" r="3.9" fill="#2a6e3f" opacity="0.9"/><circle cx="283.8" cy="98.0" r="3.9" fill="#2a6e3f" opacity="0.9"/><circle cx="294.0" cy="98.0" r="3.9" fill="#2a6e3f" opacity="0.9"/><circle cx="304.2" cy="98.0" r="3.9" fill="#2a6e3f" opacity="0.9"/><circle cx="314.4" cy="98.0" r="3.9" fill="#2a6e3f" opacity="0.9"/><circle cx="324.6" cy="98.0" r="3.9" fill="#2a6e3f" opacity="0.9"/><circle cx="334.8" cy="98.0" r="3.9" fill="#2a6e3f" opacity="0.9"/><circle cx="90.0" cy="108.2" r="3.9" fill="#2a6e3f" opacity="0.9"/><circle cx="100.2" cy="108.2" r="3.9" fill="#2a6e3f" opacity="0.9"/><circle cx="110.4" cy="108.2" r="3.9" fill="#2a6e3f" opacity="0.9"/><circle cx="120.6" cy="108.2" r="3.9" fill="#2a6e3f" opacity="0.9"/><circle cx="130.8" cy="108.2" r="3.9" fill="#2a6e3f" opacity="0.9"/><circle cx="141.0" cy="108.2" r="3.9" fill="#2a6e3f" opacity="0.9"/><circle cx="151.2" cy="108.2" r="3.9" fill="#2a6e3f" opacity="0.9"/><circle cx="161.4" cy="108.2" r="3.9" fill="#2a6e3f" opacity="0.9"/><circle cx="171.6" cy="108.2" r="3.9" fill="#2a6e3f" opacity="0.9"/><circle cx="181.8" cy="108.2" r="3.9" fill="#2a6e3f" opacity="0.9"/><circle cx="192.0" cy="108.2" r="3.9" fill="#2a6e3f" opacity="0.9"/><circle cx="202.2" cy="108.2" r="3.9" fill="#2a6e3f" opacity="0.9"/><circle cx="212.4" cy="108.2" r="3.9" fill="#2a6e3f" opacity="0.9"/><circle cx="222.6" cy="108.2" r="3.9" fill="#2a6e3f" opacity="0.9"/><circle cx="232.8" cy="108.2" r="3.9" fill="#2a6e3f" opacity="0.9"/><circle cx="243.0" cy="108.2" r="3.9" fill="#2a6e3f" opacity="0.9"/><circle cx="253.2" cy="108.2" r="3.9" fill="#2a6e3f" opacity="0.9"/><circle cx="263.4" cy="108.2" r="3.9" fill="#2a6e3f" opacity="0.9"/><circle cx="273.6" cy="108.2" r="3.9" fill="#2a6e3f" opacity="0.9"/><circle cx="283.8" cy="108.2" r="3.9" fill="#2a6e3f" opacity="0.9"/><circle cx="294.0" cy="108.2" r="3.9" fill="#2a6e3f" opacity="0.9"/><circle cx="304.2" cy="108.2" r="3.9" fill="#2a6e3f" opacity="0.9"/><circle cx="314.4" cy="108.2" r="3.9" fill="#2a6e3f" opacity="0.9"/><circle cx="324.6" cy="108.2" r="3.9" fill="#2a6e3f" opacity="0.9"/><circle cx="334.8" cy="108.2" r="3.9" fill="#2a6e3f" opacity="0.9"/><circle cx="90.0" cy="118.4" r="3.9" fill="#2a6e3f" opacity="0.9"/><circle cx="100.2" cy="118.4" r="3.9" fill="#2a6e3f" opacity="0.9"/><circle cx="110.4" cy="118.4" r="3.9" fill="#2a6e3f" opacity="0.9"/><circle cx="120.6" cy="118.4" r="3.9" fill="#2a6e3f" opacity="0.9"/><circle cx="130.8" cy="118.4" r="3.9" fill="#2a6e3f" opacity="0.9"/><circle cx="141.0" cy="118.4" r="3.9" fill="#2a6e3f" opacity="0.9"/><circle cx="151.2" cy="118.4" r="3.9" fill="#2a6e3f" opacity="0.9"/><circle cx="161.4" cy="118.4" r="3.9" fill="#2a6e3f" opacity="0.9"/><circle cx="171.6" cy="118.4" r="3.9" fill="#2a6e3f" opacity="0.9"/><circle cx="181.8" cy="118.4" r="3.9" fill="#2a6e3f" opacity="0.9"/><circle cx="192.0" cy="118.4" r="3.9" fill="#2a6e3f" opacity="0.9"/><circle cx="202.2" cy="118.4" r="3.9" fill="#2a6e3f" opacity="0.9"/><circle cx="212.4" cy="118.4" r="3.9" fill="#2a6e3f" opacity="0.9"/><circle cx="222.6" cy="118.4" r="3.9" fill="#2a6e3f" opacity="0.9"/><circle cx="232.8" cy="118.4" r="3.9" fill="#2a6e3f" opacity="0.9"/><circle cx="243.0" cy="118.4" r="3.9" fill="#2a6e3f" opacity="0.9"/><circle cx="253.2" cy="118.4" r="3.9" fill="#2a6e3f" opacity="0.9"/><circle cx="263.4" cy="118.4" r="3.9" fill="#2a6e3f" opacity="0.9"/><circle cx="273.6" cy="118.4" r="3.9" fill="#2a6e3f" opacity="0.9"/><circle cx="283.8" cy="118.4" r="3.9" fill="#2a6e3f" opacity="0.9"/><circle cx="294.0" cy="118.4" r="3.9" fill="#2a6e3f" opacity="0.9"/><circle cx="304.2" cy="118.4" r="3.9" fill="#2a6e3f" opacity="0.9"/><circle cx="314.4" cy="118.4" r="3.9" fill="#2a6e3f" opacity="0.9"/><circle cx="324.6" cy="118.4" r="3.9" fill="#2a6e3f" opacity="0.9"/><circle cx="334.8" cy="118.4" r="3.9" fill="#2a6e3f" opacity="0.9"/><circle cx="90.0" cy="128.6" r="3.9" fill="#2a6e3f" opacity="0.9"/><circle cx="100.2" cy="128.6" r="3.9" fill="#2a6e3f" opacity="0.9"/><circle cx="110.4" cy="128.6" r="3.9" fill="#2a6e3f" opacity="0.9"/><circle cx="120.6" cy="128.6" r="3.9" fill="#2a6e3f" opacity="0.9"/><circle cx="130.8" cy="128.6" r="3.9" fill="#2a6e3f" opacity="0.9"/><circle cx="141.0" cy="128.6" r="3.9" fill="#2a6e3f" opacity="0.9"/><circle cx="151.2" cy="128.6" r="3.9" fill="#2a6e3f" opacity="0.9"/><circle cx="161.4" cy="128.6" r="3.9" fill="#2a6e3f" opacity="0.9"/><circle cx="171.6" cy="128.6" r="3.9" fill="#2a6e3f" opacity="0.9"/><circle cx="181.8" cy="128.6" r="3.9" fill="#2a6e3f" opacity="0.9"/><circle cx="192.0" cy="128.6" r="3.9" fill="#2a6e3f" opacity="0.9"/><circle cx="202.2" cy="128.6" r="3.9" fill="#2a6e3f" opacity="0.9"/><circle cx="212.4" cy="128.6" r="3.9" fill="#2a6e3f" opacity="0.9"/><circle cx="222.6" cy="128.6" r="3.9" fill="#2a6e3f" opacity="0.9"/><circle cx="232.8" cy="128.6" r="3.9" fill="#2a6e3f" opacity="0.9"/><circle cx="243.0" cy="128.6" r="3.9" fill="#2a6e3f" opacity="0.9"/><circle cx="253.2" cy="128.6" r="3.9" fill="#2a6e3f" opacity="0.9"/><circle cx="263.4" cy="128.6" r="3.9" fill="#2a6e3f" opacity="0.9"/><circle cx="273.6" cy="128.6" r="3.9" fill="#2a6e3f" opacity="0.9"/><circle cx="283.8" cy="128.6" r="3.9" fill="#2a6e3f" opacity="0.9"/><circle cx="294.0" cy="128.6" r="3.9" fill="#2a6e3f" opacity="0.9"/><circle cx="304.2" cy="128.6" r="3.9" fill="#2a6e3f" opacity="0.9"/><circle cx="314.4" cy="128.6" r="3.9" fill="#2a6e3f" opacity="0.9"/><circle cx="324.6" cy="128.6" r="3.9" fill="#2a6e3f" opacity="0.9"/><circle cx="334.8" cy="128.6" r="3.9" fill="#2a6e3f" opacity="0.9"/><circle cx="90.0" cy="138.8" r="3.9" fill="#2a6e3f" opacity="0.9"/><circle cx="100.2" cy="138.8" r="3.9" fill="#2a6e3f" opacity="0.9"/><circle cx="110.4" cy="138.8" r="3.9" fill="#2a6e3f" opacity="0.9"/><circle cx="120.6" cy="138.8" r="3.9" fill="#2a6e3f" opacity="0.9"/><circle cx="130.8" cy="138.8" r="3.9" fill="#2a6e3f" opacity="0.9"/><circle cx="141.0" cy="138.8" r="3.9" fill="#2a6e3f" opacity="0.9"/><circle cx="151.2" cy="138.8" r="3.9" fill="#2a6e3f" opacity="0.9"/><circle cx="161.4" cy="138.8" r="3.9" fill="#2a6e3f" opacity="0.9"/><circle cx="171.6" cy="138.8" r="3.9" fill="#2a6e3f" opacity="0.9"/><circle cx="181.8" cy="138.8" r="3.9" fill="#2a6e3f" opacity="0.9"/><circle cx="192.0" cy="138.8" r="3.9" fill="#2a6e3f" opacity="0.9"/><circle cx="202.2" cy="138.8" r="3.9" fill="#2a6e3f" opacity="0.9"/><circle cx="212.4" cy="138.8" r="3.9" fill="#2a6e3f" opacity="0.9"/><circle cx="222.6" cy="138.8" r="3.9" fill="#2a6e3f" opacity="0.9"/><circle cx="232.8" cy="138.8" r="3.9" fill="#2a6e3f" opacity="0.9"/><circle cx="243.0" cy="138.8" r="3.9" fill="#2a6e3f" opacity="0.9"/><circle cx="253.2" cy="138.8" r="3.9" fill="#2a6e3f" opacity="0.9"/><circle cx="263.4" cy="138.8" r="3.9" fill="#2a6e3f" opacity="0.9"/><circle cx="273.6" cy="138.8" r="3.9" fill="#2a6e3f" opacity="0.9"/><circle cx="283.8" cy="138.8" r="3.9" fill="#2a6e3f" opacity="0.9"/><circle cx="294.0" cy="138.8" r="3.9" fill="#2a6e3f" opacity="0.9"/><circle cx="304.2" cy="138.8" r="3.9" fill="#2a6e3f" opacity="0.9"/><circle cx="314.4" cy="138.8" r="3.9" fill="#2a6e3f" opacity="0.9"/><circle cx="324.6" cy="138.8" r="3.9" fill="#2a6e3f" opacity="0.9"/><circle cx="334.8" cy="138.8" r="3.9" fill="#2a6e3f" opacity="0.9"/><circle cx="90.0" cy="149.0" r="3.9" fill="#2a6e3f" opacity="0.9"/><circle cx="100.2" cy="149.0" r="3.9" fill="#2a6e3f" opacity="0.9"/><circle cx="110.4" cy="149.0" r="3.9" fill="#2a6e3f" opacity="0.9"/><circle cx="120.6" cy="149.0" r="3.9" fill="#2a6e3f" opacity="0.9"/><circle cx="130.8" cy="149.0" r="3.9" fill="#2a6e3f" opacity="0.9"/><circle cx="141.0" cy="149.0" r="3.9" fill="#2a6e3f" opacity="0.9"/><circle cx="151.2" cy="149.0" r="3.9" fill="#2a6e3f" opacity="0.9"/><circle cx="161.4" cy="149.0" r="3.9" fill="#2a6e3f" opacity="0.9"/><circle cx="171.6" cy="149.0" r="3.9" fill="#2a6e3f" opacity="0.9"/><circle cx="181.8" cy="149.0" r="3.9" fill="#2a6e3f" opacity="0.9"/><circle cx="192.0" cy="149.0" r="3.9" fill="#2a6e3f" opacity="0.9"/><circle cx="202.2" cy="149.0" r="3.9" fill="#2a6e3f" opacity="0.9"/><circle cx="212.4" cy="149.0" r="3.9" fill="#2a6e3f" opacity="0.9"/><circle cx="222.6" cy="149.0" r="3.9" fill="#2a6e3f" opacity="0.9"/><circle cx="232.8" cy="149.0" r="3.9" fill="#2a6e3f" opacity="0.9"/><circle cx="243.0" cy="149.0" r="3.9" fill="#2a6e3f" opacity="0.9"/><circle cx="253.2" cy="149.0" r="3.9" fill="#2a6e3f" opacity="0.9"/><circle cx="263.4" cy="149.0" r="3.9" fill="#2a6e3f" opacity="0.9"/><circle cx="273.6" cy="149.0" r="3.9" fill="#2a6e3f" opacity="0.9"/><circle cx="283.8" cy="149.0" r="3.9" fill="#2a6e3f" opacity="0.9"/><circle cx="294.0" cy="149.0" r="3.9" fill="#2a6e3f" opacity="0.9"/><circle cx="304.2" cy="149.0" r="3.9" fill="#2a6e3f" opacity="0.9"/><circle cx="314.4" cy="149.0" r="3.9" fill="#2a6e3f" opacity="0.9"/><circle cx="324.6" cy="149.0" r="3.9" fill="#2a6e3f" opacity="0.9"/><circle cx="334.8" cy="149.0" r="3.9" fill="#2a6e3f" opacity="0.9"/><circle cx="90.0" cy="159.2" r="3.9" fill="#2a6e3f" opacity="0.9"/><circle cx="100.2" cy="159.2" r="3.9" fill="#2a6e3f" opacity="0.9"/><circle cx="110.4" cy="159.2" r="3.9" fill="#2a6e3f" opacity="0.9"/><circle cx="120.6" cy="159.2" r="3.9" fill="#2a6e3f" opacity="0.9"/><circle cx="130.8" cy="159.2" r="3.9" fill="#2a6e3f" opacity="0.9"/><circle cx="141.0" cy="159.2" r="3.9" fill="#2a6e3f" opacity="0.9"/><circle cx="151.2" cy="159.2" r="3.9" fill="#2a6e3f" opacity="0.9"/><circle cx="161.4" cy="159.2" r="3.9" fill="#2a6e3f" opacity="0.9"/><circle cx="171.6" cy="159.2" r="3.9" fill="#2a6e3f" opacity="0.9"/><circle cx="181.8" cy="159.2" r="3.9" fill="#2a6e3f" opacity="0.9"/><circle cx="192.0" cy="159.2" r="3.9" fill="#2a6e3f" opacity="0.9"/><circle cx="202.2" cy="159.2" r="3.9" fill="#2a6e3f" opacity="0.9"/><circle cx="212.4" cy="159.2" r="3.9" fill="#2a6e3f" opacity="0.9"/><circle cx="222.6" cy="159.2" r="3.9" fill="#2a6e3f" opacity="0.9"/><circle cx="232.8" cy="159.2" r="3.9" fill="#2a6e3f" opacity="0.9"/><circle cx="243.0" cy="159.2" r="3.9" fill="#2a6e3f" opacity="0.9"/><circle cx="253.2" cy="159.2" r="3.9" fill="#2a6e3f" opacity="0.9"/><circle cx="263.4" cy="159.2" r="3.9" fill="#2a6e3f" opacity="0.9"/><circle cx="273.6" cy="159.2" r="3.9" fill="#2a6e3f" opacity="0.9"/><circle cx="283.8" cy="159.2" r="3.9" fill="#2a6e3f" opacity="0.9"/><circle cx="294.0" cy="159.2" r="3.9" fill="#2a6e3f" opacity="0.9"/><circle cx="304.2" cy="159.2" r="3.9" fill="#2a6e3f" opacity="0.9"/><circle cx="314.4" cy="159.2" r="3.9" fill="#2a6e3f" opacity="0.9"/><circle cx="324.6" cy="159.2" r="3.9" fill="#2a6e3f" opacity="0.9"/><circle cx="334.8" cy="159.2" r="3.9" fill="#2a6e3f" opacity="0.9"/><circle cx="90.0" cy="169.4" r="3.9" fill="#2a6e3f" opacity="0.9"/><circle cx="100.2" cy="169.4" r="3.9" fill="#2a6e3f" opacity="0.9"/><circle cx="110.4" cy="169.4" r="3.9" fill="#2a6e3f" opacity="0.9"/><circle cx="120.6" cy="169.4" r="3.9" fill="#2a6e3f" opacity="0.9"/><circle cx="130.8" cy="169.4" r="3.9" fill="#2a6e3f" opacity="0.9"/><circle cx="141.0" cy="169.4" r="3.9" fill="#2a6e3f" opacity="0.9"/><circle cx="151.2" cy="169.4" r="3.9" fill="#2a6e3f" opacity="0.9"/><circle cx="161.4" cy="169.4" r="3.9" fill="#2a6e3f" opacity="0.9"/><circle cx="171.6" cy="169.4" r="3.9" fill="#2a6e3f" opacity="0.9"/><circle cx="181.8" cy="169.4" r="3.9" fill="#2a6e3f" opacity="0.9"/><circle cx="192.0" cy="169.4" r="3.9" fill="#2a6e3f" opacity="0.9"/><circle cx="202.2" cy="169.4" r="3.9" fill="#2a6e3f" opacity="0.9"/><circle cx="212.4" cy="169.4" r="3.9" fill="#2a6e3f" opacity="0.9"/><circle cx="222.6" cy="169.4" r="3.9" fill="#2a6e3f" opacity="0.9"/><circle cx="232.8" cy="169.4" r="3.9" fill="#2a6e3f" opacity="0.9"/><circle cx="243.0" cy="169.4" r="3.9" fill="#2a6e3f" opacity="0.9"/><circle cx="253.2" cy="169.4" r="3.9" fill="#2a6e3f" opacity="0.9"/><circle cx="263.4" cy="169.4" r="3.9" fill="#2a6e3f" opacity="0.9"/><circle cx="273.6" cy="169.4" r="3.9" fill="#2a6e3f" opacity="0.9"/><circle cx="283.8" cy="169.4" r="3.9" fill="#2a6e3f" opacity="0.9"/><circle cx="294.0" cy="169.4" r="3.9" fill="#2a6e3f" opacity="0.9"/><circle cx="304.2" cy="169.4" r="3.9" fill="#2a6e3f" opacity="0.9"/><circle cx="314.4" cy="169.4" r="3.9" fill="#2a6e3f" opacity="0.9"/><circle cx="324.6" cy="169.4" r="3.9" fill="#2a6e3f" opacity="0.9"/><circle cx="334.8" cy="169.4" r="3.9" fill="#2a6e3f" opacity="0.9"/><circle cx="90.0" cy="179.6" r="3.9" fill="#2a6e3f" opacity="0.9"/><circle cx="100.2" cy="179.6" r="3.9" fill="#2a6e3f" opacity="0.9"/><circle cx="110.4" cy="179.6" r="3.9" fill="#2a6e3f" opacity="0.9"/><circle cx="120.6" cy="179.6" r="3.9" fill="#2a6e3f" opacity="0.9"/><circle cx="130.8" cy="179.6" r="3.9" fill="#2a6e3f" opacity="0.9"/><circle cx="141.0" cy="179.6" r="3.9" fill="#2a6e3f" opacity="0.9"/><circle cx="151.2" cy="179.6" r="3.9" fill="#2a6e3f" opacity="0.9"/><circle cx="161.4" cy="179.6" r="3.9" fill="#2a6e3f" opacity="0.9"/><circle cx="171.6" cy="179.6" r="3.9" fill="#2a6e3f" opacity="0.9"/><circle cx="181.8" cy="179.6" r="3.9" fill="#2a6e3f" opacity="0.9"/><circle cx="192.0" cy="179.6" r="3.9" fill="#2a6e3f" opacity="0.9"/><circle cx="202.2" cy="179.6" r="3.9" fill="#2a6e3f" opacity="0.9"/><circle cx="212.4" cy="179.6" r="3.9" fill="#2a6e3f" opacity="0.9"/><circle cx="222.6" cy="179.6" r="3.9" fill="#2a6e3f" opacity="0.9"/><circle cx="232.8" cy="179.6" r="3.9" fill="#2a6e3f" opacity="0.9"/><circle cx="243.0" cy="179.6" r="3.9" fill="#2a6e3f" opacity="0.9"/><circle cx="253.2" cy="179.6" r="3.9" fill="#2a6e3f" opacity="0.9"/><circle cx="263.4" cy="179.6" r="3.9" fill="#2a6e3f" opacity="0.9"/><circle cx="273.6" cy="179.6" r="3.9" fill="#2a6e3f" opacity="0.9"/><circle cx="283.8" cy="179.6" r="3.9" fill="#2a6e3f" opacity="0.9"/><circle cx="294.0" cy="179.6" r="3.9" fill="#2a6e3f" opacity="0.9"/><circle cx="304.2" cy="179.6" r="3.9" fill="#2a6e3f" opacity="0.9"/><circle cx="314.4" cy="179.6" r="3.9" fill="#2a6e3f" opacity="0.9"/><circle cx="324.6" cy="179.6" r="3.9" fill="#2a6e3f" opacity="0.9"/><circle cx="334.8" cy="179.6" r="3.9" fill="#2a6e3f" opacity="0.9"/><circle cx="90.0" cy="189.8" r="3.9" fill="#2a6e3f" opacity="0.9"/><circle cx="100.2" cy="189.8" r="3.9" fill="#2a6e3f" opacity="0.9"/><circle cx="110.4" cy="189.8" r="3.9" fill="#2a6e3f" opacity="0.9"/><circle cx="120.6" cy="189.8" r="3.9" fill="#2a6e3f" opacity="0.9"/><circle cx="130.8" cy="189.8" r="3.9" fill="#2a6e3f" opacity="0.9"/><circle cx="141.0" cy="189.8" r="3.9" fill="#2a6e3f" opacity="0.9"/><circle cx="151.2" cy="189.8" r="3.9" fill="#2a6e3f" opacity="0.9"/><circle cx="161.4" cy="189.8" r="3.9" fill="#2a6e3f" opacity="0.9"/><circle cx="171.6" cy="189.8" r="3.9" fill="#2a6e3f" opacity="0.9"/><circle cx="181.8" cy="189.8" r="3.9" fill="#2a6e3f" opacity="0.9"/><circle cx="192.0" cy="189.8" r="3.9" fill="#2a6e3f" opacity="0.9"/><circle cx="202.2" cy="189.8" r="3.9" fill="#2a6e3f" opacity="0.9"/><circle cx="212.4" cy="189.8" r="3.9" fill="#2a6e3f" opacity="0.9"/><circle cx="222.6" cy="189.8" r="3.9" fill="#2a6e3f" opacity="0.9"/><circle cx="232.8" cy="189.8" r="3.9" fill="#2a6e3f" opacity="0.9"/><circle cx="243.0" cy="189.8" r="3.9" fill="#2a6e3f" opacity="0.9"/><circle cx="253.2" cy="189.8" r="3.9" fill="#2a6e3f" opacity="0.9"/><circle cx="263.4" cy="189.8" r="3.9" fill="#2a6e3f" opacity="0.9"/><circle cx="273.6" cy="189.8" r="3.9" fill="#2a6e3f" opacity="0.9"/><circle cx="283.8" cy="189.8" r="3.9" fill="#2a6e3f" opacity="0.9"/><circle cx="294.0" cy="189.8" r="3.9" fill="#2a6e3f" opacity="0.9"/><circle cx="304.2" cy="189.8" r="3.9" fill="#2a6e3f" opacity="0.9"/><circle cx="314.4" cy="189.8" r="3.9" fill="#2a6e3f" opacity="0.9"/><circle cx="324.6" cy="189.8" r="3.9" fill="#2a6e3f" opacity="0.9"/><circle cx="334.8" cy="189.8" r="3.9" fill="#2a6e3f" opacity="0.9"/><circle cx="90.0" cy="200.0" r="3.9" fill="#2a6e3f" opacity="0.9"/><circle cx="100.2" cy="200.0" r="3.9" fill="#2a6e3f" opacity="0.9"/><circle cx="110.4" cy="200.0" r="3.9" fill="#2a6e3f" opacity="0.9"/><circle cx="120.6" cy="200.0" r="3.9" fill="#2a6e3f" opacity="0.9"/><circle cx="130.8" cy="200.0" r="3.9" fill="#2a6e3f" opacity="0.9"/><circle cx="141.0" cy="200.0" r="3.9" fill="#2a6e3f" opacity="0.9"/><circle cx="151.2" cy="200.0" r="3.9" fill="#2a6e3f" opacity="0.9"/><circle cx="161.4" cy="200.0" r="3.9" fill="#2a6e3f" opacity="0.9"/><circle cx="171.6" cy="200.0" r="3.9" fill="#2a6e3f" opacity="0.9"/><circle cx="181.8" cy="200.0" r="3.9" fill="#2a6e3f" opacity="0.9"/><circle cx="192.0" cy="200.0" r="3.9" fill="#2a6e3f" opacity="0.9"/><circle cx="202.2" cy="200.0" r="3.9" fill="#2a6e3f" opacity="0.9"/><circle cx="212.4" cy="200.0" r="3.9" fill="#2a6e3f" opacity="0.9"/><circle cx="222.6" cy="200.0" r="3.9" fill="#2a6e3f" opacity="0.9"/><circle cx="232.8" cy="200.0" r="3.9" fill="#2a6e3f" opacity="0.9"/><circle cx="243.0" cy="200.0" r="3.9" fill="#2a6e3f" opacity="0.9"/><circle cx="253.2" cy="200.0" r="3.9" fill="#2a6e3f" opacity="0.9"/><circle cx="263.4" cy="200.0" r="3.9" fill="#2a6e3f" opacity="0.9"/><circle cx="273.6" cy="200.0" r="3.9" fill="#2a6e3f" opacity="0.9"/><circle cx="283.8" cy="200.0" r="3.9" fill="#2a6e3f" opacity="0.9"/><circle cx="294.0" cy="200.0" r="3.9" fill="#2a6e3f" opacity="0.9"/><circle cx="304.2" cy="200.0" r="3.9" fill="#2a6e3f" opacity="0.9"/><circle cx="314.4" cy="200.0" r="3.9" fill="#2a6e3f" opacity="0.9"/><circle cx="324.6" cy="200.0" r="3.9" fill="#2a6e3f" opacity="0.9"/><circle cx="334.8" cy="200.0" r="3.9" fill="#2a6e3f" opacity="0.9"/><circle cx="90.0" cy="210.2" r="3.9" fill="#2a6e3f" opacity="0.9"/><circle cx="100.2" cy="210.2" r="3.9" fill="#2a6e3f" opacity="0.9"/><circle cx="110.4" cy="210.2" r="3.9" fill="#2a6e3f" opacity="0.9"/><circle cx="120.6" cy="210.2" r="3.9" fill="#2a6e3f" opacity="0.9"/><circle cx="130.8" cy="210.2" r="3.9" fill="#2a6e3f" opacity="0.9"/><circle cx="141.0" cy="210.2" r="3.9" fill="#2a6e3f" opacity="0.9"/><circle cx="151.2" cy="210.2" r="3.9" fill="#2a6e3f" opacity="0.9"/><circle cx="161.4" cy="210.2" r="3.9" fill="#2a6e3f" opacity="0.9"/><circle cx="171.6" cy="210.2" r="3.9" fill="#2a6e3f" opacity="0.9"/><circle cx="181.8" cy="210.2" r="3.9" fill="#2a6e3f" opacity="0.9"/><circle cx="192.0" cy="210.2" r="3.9" fill="#b83a1e" opacity="0.9"/><circle cx="202.2" cy="210.2" r="3.9" fill="#b83a1e" opacity="0.9"/><circle cx="212.4" cy="210.2" r="3.9" fill="#b83a1e" opacity="0.9"/><circle cx="222.6" cy="210.2" r="3.9" fill="#b83a1e" opacity="0.9"/><circle cx="232.8" cy="210.2" r="3.9" fill="#b83a1e" opacity="0.9"/><circle cx="243.0" cy="210.2" r="3.9" fill="#b83a1e" opacity="0.9"/><circle cx="253.2" cy="210.2" r="3.9" fill="#b83a1e" opacity="0.9"/><circle cx="263.4" cy="210.2" r="3.9" fill="#b83a1e" opacity="0.9"/><circle cx="273.6" cy="210.2" r="3.9" fill="#b83a1e" opacity="0.9"/><circle cx="283.8" cy="210.2" r="3.9" fill="#b83a1e" opacity="0.9"/><circle cx="294.0" cy="210.2" r="3.9" fill="#b83a1e" opacity="0.9"/><circle cx="304.2" cy="210.2" r="3.9" fill="#b83a1e" opacity="0.9"/><circle cx="314.4" cy="210.2" r="3.9" fill="#b83a1e" opacity="0.9"/><circle cx="324.6" cy="210.2" r="3.9" fill="#b83a1e" opacity="0.9"/><circle cx="334.8" cy="210.2" r="3.9" fill="#b83a1e" opacity="0.9"/><circle cx="334.8" cy="210.2" r="9.5" fill="none" stroke="#c9962a" stroke-width="2.6"/><circle cx="90.0" cy="220.4" r="3.9" fill="#b83a1e" opacity="0.9"/><circle cx="100.2" cy="220.4" r="3.9" fill="#b83a1e" opacity="0.9"/><circle cx="110.4" cy="220.4" r="3.9" fill="#b83a1e" opacity="0.9"/><circle cx="120.6" cy="220.4" r="3.9" fill="#b83a1e" opacity="0.9"/><circle cx="130.8" cy="220.4" r="3.9" fill="#b83a1e" opacity="0.9"/><circle cx="141.0" cy="220.4" r="3.9" fill="#b83a1e" opacity="0.9"/><circle cx="151.2" cy="220.4" r="3.9" fill="#b83a1e" opacity="0.9"/><circle cx="161.4" cy="220.4" r="3.9" fill="#b83a1e" opacity="0.9"/><circle cx="171.6" cy="220.4" r="3.9" fill="#b83a1e" opacity="0.9"/><circle cx="181.8" cy="220.4" r="3.9" fill="#b83a1e" opacity="0.9"/><circle cx="192.0" cy="220.4" r="3.9" fill="#b83a1e" opacity="0.9"/><circle cx="202.2" cy="220.4" r="3.9" fill="#b83a1e" opacity="0.9"/><circle cx="212.4" cy="220.4" r="3.9" fill="#b83a1e" opacity="0.9"/><circle cx="222.6" cy="220.4" r="3.9" fill="#b83a1e" opacity="0.9"/><circle cx="232.8" cy="220.4" r="3.9" fill="#b83a1e" opacity="0.9"/><circle cx="243.0" cy="220.4" r="3.9" fill="#b83a1e" opacity="0.9"/><circle cx="253.2" cy="220.4" r="3.9" fill="#b83a1e" opacity="0.9"/><circle cx="263.4" cy="220.4" r="3.9" fill="#b83a1e" opacity="0.9"/><circle cx="273.6" cy="220.4" r="3.9" fill="#b83a1e" opacity="0.9"/><circle cx="283.8" cy="220.4" r="3.9" fill="#b83a1e" opacity="0.9"/><circle cx="294.0" cy="220.4" r="3.9" fill="#b83a1e" opacity="0.9"/><circle cx="304.2" cy="220.4" r="3.9" fill="#b83a1e" opacity="0.9"/><circle cx="314.4" cy="220.4" r="3.9" fill="#b83a1e" opacity="0.9"/><circle cx="324.6" cy="220.4" r="3.9" fill="#b83a1e" opacity="0.9"/><circle cx="334.8" cy="220.4" r="3.9" fill="#b83a1e" opacity="0.9"/><circle cx="90.0" cy="230.6" r="3.9" fill="#b83a1e" opacity="0.9"/><circle cx="100.2" cy="230.6" r="3.9" fill="#b83a1e" opacity="0.9"/><circle cx="110.4" cy="230.6" r="3.9" fill="#b83a1e" opacity="0.9"/><circle cx="120.6" cy="230.6" r="3.9" fill="#b83a1e" opacity="0.9"/><circle cx="130.8" cy="230.6" r="3.9" fill="#b83a1e" opacity="0.9"/><circle cx="141.0" cy="230.6" r="3.9" fill="#b83a1e" opacity="0.9"/><circle cx="151.2" cy="230.6" r="3.9" fill="#b83a1e" opacity="0.9"/><circle cx="161.4" cy="230.6" r="3.9" fill="#b83a1e" opacity="0.9"/><circle cx="171.6" cy="230.6" r="3.9" fill="#b83a1e" opacity="0.9"/><circle cx="181.8" cy="230.6" r="3.9" fill="#b83a1e" opacity="0.9"/><circle cx="192.0" cy="230.6" r="3.9" fill="#b83a1e" opacity="0.9"/><circle cx="202.2" cy="230.6" r="3.9" fill="#b83a1e" opacity="0.9"/><circle cx="212.4" cy="230.6" r="3.9" fill="#b83a1e" opacity="0.9"/><circle cx="222.6" cy="230.6" r="3.9" fill="#b83a1e" opacity="0.9"/><circle cx="232.8" cy="230.6" r="3.9" fill="#b83a1e" opacity="0.9"/><circle cx="243.0" cy="230.6" r="3.9" fill="#b83a1e" opacity="0.9"/><circle cx="253.2" cy="230.6" r="3.9" fill="#b83a1e" opacity="0.9"/><circle cx="263.4" cy="230.6" r="3.9" fill="#b83a1e" opacity="0.9"/><circle cx="273.6" cy="230.6" r="3.9" fill="#b83a1e" opacity="0.9"/><circle cx="283.8" cy="230.6" r="3.9" fill="#b83a1e" opacity="0.9"/><circle cx="294.0" cy="230.6" r="3.9" fill="#b83a1e" opacity="0.9"/><circle cx="304.2" cy="230.6" r="3.9" fill="#b83a1e" opacity="0.9"/><circle cx="314.4" cy="230.6" r="3.9" fill="#b83a1e" opacity="0.9"/><circle cx="324.6" cy="230.6" r="3.9" fill="#b83a1e" opacity="0.9"/><circle cx="334.8" cy="230.6" r="3.9" fill="#b83a1e" opacity="0.9"/><circle cx="90.0" cy="240.8" r="3.9" fill="#b83a1e" opacity="0.9"/><circle cx="100.2" cy="240.8" r="3.9" fill="#b83a1e" opacity="0.9"/><circle cx="110.4" cy="240.8" r="3.9" fill="#b83a1e" opacity="0.9"/><circle cx="120.6" cy="240.8" r="3.9" fill="#b83a1e" opacity="0.9"/><circle cx="130.8" cy="240.8" r="3.9" fill="#b83a1e" opacity="0.9"/><line x1="345.8" y1="210.2" x2="363" y2="210.2" stroke="#c9962a" stroke-width="1.8"/><text x="369" y="194.2" font-family="'Playfair Display',serif" font-style="italic" font-size="15" fill="#c9962a">Parkey, 6 January 2019</text><text x="369" y="211.2" font-family="'Roboto Mono',monospace" font-size="9.6" fill="#6b5e4a">It is red now.</text><text x="369" y="225.2" font-family="'Roboto Mono',monospace" font-size="9.6" fill="#6b5e4a">At ten seconds left it was</text><text x="369" y="239.2" font-family="'Roboto Mono',monospace" font-size="9.6" fill="#6b5e4a">no colour at all.</text><circle cx="94" cy="273.0" r="3.9" fill="#2a6e3f"/><text x="106" y="277.0" font-family="'Roboto Mono',monospace" font-size="10" fill="#1a1208">285 made &#183; 80.3%</text><circle cx="260" cy="273.0" r="3.9" fill="#b83a1e"/><text x="272" y="277.0" font-family="'Roboto Mono',monospace" font-size="10" fill="#1a1208">70 missed &#183; 19.7%</text><text x="0" y="303.0" font-family="'Roboto Mono',monospace" font-size="10.5" fill="#1a1208">THE LAW DESCRIBES THE PICTURE. IT DOES NOT DESCRIBE A DOT.</text></svg>