<svg xmlns="http://www.w3.org/2000/svg" viewBox="0 0 820 430" width="100%" font-family="Libre Baskerville, Georgia, serif">
<rect width="820" height="430" fill="#f5f0e8"/>
<text x="132" y="30" font-size="15" font-weight="700" fill="#1a1208">THE LEAGUES OVERLAP ALMOST COMPLETELY</text>
<text x="132" y="50" font-size="11.5" fill="#5a4c38">Every power-conference team&#8217;s 2025 schedule strength, computed from results alone. Each dot is one team.</text>
<line x1="183.2" y1="78" x2="183.2" y2="348" stroke="#e0d8c5" stroke-width="1" stroke-dasharray="2 4"/>
<text x="183.2" y="362" font-size="10" fill="#7a6a52" text-anchor="middle" font-family="Roboto Mono, monospace">-2</text>
<line x1="285.6" y1="78" x2="285.6" y2="348" stroke="#e0d8c5" stroke-width="1" stroke-dasharray="2 4"/>
<text x="285.6" y="362" font-size="10" fill="#7a6a52" text-anchor="middle" font-family="Roboto Mono, monospace">+0</text>
<line x1="388.0" y1="78" x2="388.0" y2="348" stroke="#e0d8c5" stroke-width="1" stroke-dasharray="2 4"/>
<text x="388.0" y="362" font-size="10" fill="#7a6a52" text-anchor="middle" font-family="Roboto Mono, monospace">+2</text>
<line x1="490.4" y1="78" x2="490.4" y2="348" stroke="#e0d8c5" stroke-width="1" stroke-dasharray="2 4"/>
<text x="490.4" y="362" font-size="10" fill="#7a6a52" text-anchor="middle" font-family="Roboto Mono, monospace">+4</text>
<line x1="592.8" y1="78" x2="592.8" y2="348" stroke="#e0d8c5" stroke-width="1" stroke-dasharray="2 4"/>
<text x="592.8" y="362" font-size="10" fill="#7a6a52" text-anchor="middle" font-family="Roboto Mono, monospace">+6</text>
<line x1="695.2" y1="78" x2="695.2" y2="348" stroke="#e0d8c5" stroke-width="1" stroke-dasharray="2 4"/>
<text x="695.2" y="362" font-size="10" fill="#7a6a52" text-anchor="middle" font-family="Roboto Mono, monospace">+8</text>
<text x="118" y="106" font-size="12.5" font-weight="700" fill="#1a1208" text-anchor="end">SEC</text>
<text x="118" y="121" font-size="9.5" fill="#7a6a52" text-anchor="end" font-family="Roboto Mono, monospace">n=16</text>
<line x1="351.5" y1="102" x2="701.0" y2="102" stroke="#e0d8c5" stroke-width="6" stroke-linecap="round"/>
<circle cx="377.7" cy="107.2" r="3.4" fill="#2c4a6e" opacity="0.62"/>
<circle cx="477.7" cy="99.0" r="3.4" fill="#2c4a6e" opacity="0.62"/>
<circle cx="491.9" cy="103.4" r="3.4" fill="#2c4a6e" opacity="0.62"/>
<circle cx="497.0" cy="105.9" r="3.4" fill="#2c4a6e" opacity="0.62"/>
<circle cx="351.5" cy="105.0" r="3.4" fill="#2c4a6e" opacity="0.62"/>
<circle cx="549.1" cy="107.8" r="3.4" fill="#2c4a6e" opacity="0.62"/>
<circle cx="426.2" cy="107.0" r="3.4" fill="#2c4a6e" opacity="0.62"/>
<circle cx="560.6" cy="107.9" r="3.4" fill="#2c4a6e" opacity="0.62"/>
<circle cx="616.4" cy="95.4" r="3.4" fill="#2c4a6e" opacity="0.62"/>
<circle cx="479.4" cy="101.1" r="3.4" fill="#2c4a6e" opacity="0.62"/>
<circle cx="500.8" cy="101.8" r="3.4" fill="#2c4a6e" opacity="0.62"/>
<circle cx="701.0" cy="95.9" r="3.4" fill="#2c4a6e" opacity="0.62"/>
<circle cx="377.6" cy="95.1" r="3.4" fill="#2c4a6e" opacity="0.62"/>
<circle cx="556.1" cy="106.6" r="3.4" fill="#2c4a6e" opacity="0.62"/>
<circle cx="396.7" cy="108.8" r="3.4" fill="#2c4a6e" opacity="0.62"/>
<circle cx="557.3" cy="106.0" r="3.4" fill="#2c4a6e" opacity="0.62"/>
<line x1="494.8" y1="85" x2="494.8" y2="119" stroke="#b83a1e" stroke-width="2.5"/>
<text x="494.8" y="80" font-size="10" font-weight="700" fill="#b83a1e" text-anchor="middle" font-family="Roboto Mono, monospace">+4.1</text>
<text x="118" y="180" font-size="12.5" font-weight="700" fill="#1a1208" text-anchor="end">Big Ten</text>
<text x="118" y="195" font-size="9.5" fill="#7a6a52" text-anchor="end" font-family="Roboto Mono, monospace">n=18</text>
<line x1="308.9" y1="176" x2="719.3" y2="176" stroke="#e0d8c5" stroke-width="6" stroke-linecap="round"/>
<circle cx="506.0" cy="173.4" r="3.4" fill="#2c4a6e" opacity="0.62"/>
<circle cx="366.9" cy="178.9" r="3.4" fill="#2c4a6e" opacity="0.62"/>
<circle cx="704.0" cy="173.2" r="3.4" fill="#2c4a6e" opacity="0.62"/>
<circle cx="341.5" cy="179.4" r="3.4" fill="#2c4a6e" opacity="0.62"/>
<circle cx="442.9" cy="172.9" r="3.4" fill="#2c4a6e" opacity="0.62"/>
<circle cx="509.6" cy="180.0" r="3.4" fill="#2c4a6e" opacity="0.62"/>
<circle cx="461.9" cy="182.8" r="3.4" fill="#2c4a6e" opacity="0.62"/>
<circle cx="398.5" cy="182.8" r="3.4" fill="#2c4a6e" opacity="0.62"/>
<circle cx="308.9" cy="181.4" r="3.4" fill="#2c4a6e" opacity="0.62"/>
<circle cx="628.3" cy="181.8" r="3.4" fill="#2c4a6e" opacity="0.62"/>
<circle cx="470.5" cy="178.9" r="3.4" fill="#2c4a6e" opacity="0.62"/>
<circle cx="442.1" cy="176.8" r="3.4" fill="#2c4a6e" opacity="0.62"/>
<circle cx="420.1" cy="181.9" r="3.4" fill="#2c4a6e" opacity="0.62"/>
<circle cx="382.6" cy="170.3" r="3.4" fill="#2c4a6e" opacity="0.62"/>
<circle cx="513.1" cy="174.2" r="3.4" fill="#2c4a6e" opacity="0.62"/>
<circle cx="510.3" cy="177.5" r="3.4" fill="#2c4a6e" opacity="0.62"/>
<circle cx="387.0" cy="175.7" r="3.4" fill="#2c4a6e" opacity="0.62"/>
<circle cx="719.3" cy="180.1" r="3.4" fill="#2c4a6e" opacity="0.62"/>
<line x1="473.0" y1="159" x2="473.0" y2="193" stroke="#b83a1e" stroke-width="2.5"/>
<text x="473.0" y="154" font-size="10" font-weight="700" fill="#b83a1e" text-anchor="middle" font-family="Roboto Mono, monospace">+3.7</text>
<text x="118" y="254" font-size="12.5" font-weight="700" fill="#1a1208" text-anchor="end">Big 12</text>
<text x="118" y="269" font-size="9.5" fill="#7a6a52" text-anchor="end" font-family="Roboto Mono, monospace">n=16</text>
<line x1="245.7" y1="250" x2="577.6" y2="250" stroke="#e0d8c5" stroke-width="6" stroke-linecap="round"/>
<circle cx="444.7" cy="245.7" r="3.4" fill="#2c4a6e" opacity="0.62"/>
<circle cx="394.8" cy="243.9" r="3.4" fill="#2c4a6e" opacity="0.62"/>
<circle cx="484.3" cy="244.8" r="3.4" fill="#2c4a6e" opacity="0.62"/>
<circle cx="343.2" cy="256.5" r="3.4" fill="#2c4a6e" opacity="0.62"/>
<circle cx="506.6" cy="244.9" r="3.4" fill="#2c4a6e" opacity="0.62"/>
<circle cx="245.7" cy="246.2" r="3.4" fill="#2c4a6e" opacity="0.62"/>
<circle cx="387.0" cy="248.3" r="3.4" fill="#2c4a6e" opacity="0.62"/>
<circle cx="488.1" cy="251.7" r="3.4" fill="#2c4a6e" opacity="0.62"/>
<circle cx="549.7" cy="253.9" r="3.4" fill="#2c4a6e" opacity="0.62"/>
<circle cx="555.6" cy="244.1" r="3.4" fill="#2c4a6e" opacity="0.62"/>
<circle cx="332.3" cy="256.0" r="3.4" fill="#2c4a6e" opacity="0.62"/>
<circle cx="577.6" cy="253.7" r="3.4" fill="#2c4a6e" opacity="0.62"/>
<circle cx="515.4" cy="247.5" r="3.4" fill="#2c4a6e" opacity="0.62"/>
<circle cx="347.2" cy="245.7" r="3.4" fill="#2c4a6e" opacity="0.62"/>
<circle cx="381.8" cy="251.3" r="3.4" fill="#2c4a6e" opacity="0.62"/>
<circle cx="393.8" cy="251.3" r="3.4" fill="#2c4a6e" opacity="0.62"/>
<line x1="434.2" y1="233" x2="434.2" y2="267" stroke="#b83a1e" stroke-width="2.5"/>
<text x="434.2" y="228" font-size="10" font-weight="700" fill="#b83a1e" text-anchor="middle" font-family="Roboto Mono, monospace">+2.9</text>
<text x="118" y="328" font-size="12.5" font-weight="700" fill="#1a1208" text-anchor="end">ACC</text>
<text x="118" y="343" font-size="9.5" fill="#7a6a52" text-anchor="end" font-family="Roboto Mono, monospace">n=17</text>
<line x1="194.2" y1="324" x2="544.5" y2="324" stroke="#e0d8c5" stroke-width="6" stroke-linecap="round"/>
<circle cx="544.5" cy="320.7" r="3.4" fill="#2c4a6e" opacity="0.62"/>
<circle cx="515.8" cy="319.4" r="3.4" fill="#2c4a6e" opacity="0.62"/>
<circle cx="338.7" cy="327.7" r="3.4" fill="#2c4a6e" opacity="0.62"/>
<circle cx="227.5" cy="326.4" r="3.4" fill="#2c4a6e" opacity="0.62"/>
<circle cx="273.6" cy="328.2" r="3.4" fill="#2c4a6e" opacity="0.62"/>
<circle cx="375.9" cy="320.1" r="3.4" fill="#2c4a6e" opacity="0.62"/>
<circle cx="527.1" cy="327.1" r="3.4" fill="#2c4a6e" opacity="0.62"/>
<circle cx="395.4" cy="318.0" r="3.4" fill="#2c4a6e" opacity="0.62"/>
<circle cx="378.3" cy="317.1" r="3.4" fill="#2c4a6e" opacity="0.62"/>
<circle cx="394.1" cy="319.5" r="3.4" fill="#2c4a6e" opacity="0.62"/>
<circle cx="241.4" cy="327.9" r="3.4" fill="#2c4a6e" opacity="0.62"/>
<circle cx="296.8" cy="324.6" r="3.4" fill="#2c4a6e" opacity="0.62"/>
<circle cx="283.2" cy="325.6" r="3.4" fill="#2c4a6e" opacity="0.62"/>
<circle cx="208.9" cy="325.3" r="3.4" fill="#2c4a6e" opacity="0.62"/>
<circle cx="533.1" cy="325.9" r="3.4" fill="#2c4a6e" opacity="0.62"/>
<circle cx="462.4" cy="321.5" r="3.4" fill="#2c4a6e" opacity="0.62"/>
<circle cx="194.2" cy="327.1" r="3.4" fill="#2c4a6e" opacity="0.62"/>
<line x1="364.2" y1="307" x2="364.2" y2="341" stroke="#b83a1e" stroke-width="2.5"/>
<text x="364.2" y="302" font-size="10" font-weight="700" fill="#b83a1e" text-anchor="middle" font-family="Roboto Mono, monospace">+1.5</text>
<text x="705.0" y="134" font-size="10" fill="#c9962a" text-anchor="start" font-weight="700">Florida</text>
<line x1="701.0" y1="114" x2="701.0" y2="124" stroke="#c9962a" stroke-width="1.5"/>
<text x="347.5" y="134" font-size="10" fill="#c9962a" text-anchor="end" font-weight="700">Tennessee</text>
<line x1="351.5" y1="114" x2="351.5" y2="124" stroke="#c9962a" stroke-width="1.5"/>
<text x="132" y="390" font-size="11.5" font-weight="700" fill="#1a1208">THE SEC AVERAGE BEATS THE BIG TEN AVERAGE BY 0.4 POINTS.</text>
<text x="132" y="407" font-size="11" fill="#5a4c38">Florida and Tennessee are both in the SEC and are 6.8 points apart. The league you are in is the small part.</text>
<text x="772" y="390" font-size="9.5" fill="#7a6a52" text-anchor="end" font-family="Roboto Mono, monospace">red bar = conference mean</text>
</svg>