<svg xmlns="http://www.w3.org/2000/svg" viewBox="0 0 880 548" width="100%" font-family="Libre Baskerville, Georgia, serif">
<rect width="880" height="548" fill="#f5f0e8"/>
<text x="44" y="30" font-size="16.5" font-weight="700" fill="#1a1208">THIRTY-FIVE SYSTEMS, AND THEY AGREE ABOUT SOME TEAMS MORE THAN OTHERS</text>
<text x="44" y="50" font-size="11.5" fill="#6b5e4a">Where each rating system places the team. The bar covers the middle half; the dot is the median.</text>
<line x1="150.0" y1="84" x2="150.0" y2="440" stroke="#c8b99a" stroke-width=".7" stroke-dasharray="3,3"/>
<text x="150.0" y="462" font-size="10" text-anchor="middle" fill="#6b5e4a" font-family="Roboto Mono, monospace">1</text>
<line x1="259.2" y1="84" x2="259.2" y2="440" stroke="#c8b99a" stroke-width=".7" stroke-dasharray="3,3"/>
<text x="259.2" y="462" font-size="10" text-anchor="middle" fill="#6b5e4a" font-family="Roboto Mono, monospace">20</text>
<line x1="374.2" y1="84" x2="374.2" y2="440" stroke="#c8b99a" stroke-width=".7" stroke-dasharray="3,3"/>
<text x="374.2" y="462" font-size="10" text-anchor="middle" fill="#6b5e4a" font-family="Roboto Mono, monospace">40</text>
<line x1="489.1" y1="84" x2="489.1" y2="440" stroke="#c8b99a" stroke-width=".7" stroke-dasharray="3,3"/>
<text x="489.1" y="462" font-size="10" text-anchor="middle" fill="#6b5e4a" font-family="Roboto Mono, monospace">60</text>
<line x1="604.1" y1="84" x2="604.1" y2="440" stroke="#c8b99a" stroke-width=".7" stroke-dasharray="3,3"/>
<text x="604.1" y="462" font-size="10" text-anchor="middle" fill="#6b5e4a" font-family="Roboto Mono, monospace">80</text>
<line x1="719.0" y1="84" x2="719.0" y2="440" stroke="#c8b99a" stroke-width=".7" stroke-dasharray="3,3"/>
<text x="719.0" y="462" font-size="10" text-anchor="middle" fill="#6b5e4a" font-family="Roboto Mono, monospace">100</text>
<line x1="834.0" y1="84" x2="834.0" y2="440" stroke="#c8b99a" stroke-width=".7" stroke-dasharray="3,3"/>
<text x="834.0" y="462" font-size="10" text-anchor="middle" fill="#6b5e4a" font-family="Roboto Mono, monospace">120</text>
<text x="136" y="104.0" font-size="11.5" text-anchor="end" fill="#1a1208" font-weight="400">Indiana</text>
<text x="136" y="116.0" font-size="8.5" text-anchor="end" fill="#6b5e4a" font-family="Roboto Mono, monospace">No. 1</text>
<line x1="150.0" y1="100.0" x2="207.5" y2="100.0" stroke="#2c4a6e" stroke-width=".9" opacity=".35"/>
<rect x="150.0" y="93.0" width="23.0" height="14" fill="#2c4a6e" opacity=".20"/>
<circle cx="150.0" cy="100.0" r="2.7" fill="#2c4a6e" opacity=".55"/>
<circle cx="150.0" cy="100.0" r="2.7" fill="#2c4a6e" opacity=".55"/>
<circle cx="150.0" cy="100.0" r="2.7" fill="#2c4a6e" opacity=".55"/>
<circle cx="150.0" cy="100.0" r="2.7" fill="#2c4a6e" opacity=".55"/>
<circle cx="150.0" cy="100.0" r="2.7" fill="#2c4a6e" opacity=".55"/>
<circle cx="150.0" cy="100.0" r="2.7" fill="#2c4a6e" opacity=".55"/>
<circle cx="150.0" cy="100.0" r="2.7" fill="#2c4a6e" opacity=".55"/>
<circle cx="150.0" cy="100.0" r="2.7" fill="#2c4a6e" opacity=".55"/>
<circle cx="150.0" cy="100.0" r="2.7" fill="#2c4a6e" opacity=".55"/>
<circle cx="150.0" cy="100.0" r="2.7" fill="#2c4a6e" opacity=".55"/>
<circle cx="150.0" cy="100.0" r="2.7" fill="#2c4a6e" opacity=".55"/>
<circle cx="150.0" cy="100.0" r="2.7" fill="#2c4a6e" opacity=".55"/>
<circle cx="150.0" cy="100.0" r="2.7" fill="#2c4a6e" opacity=".55"/>
<circle cx="150.0" cy="100.0" r="2.7" fill="#2c4a6e" opacity=".55"/>
<circle cx="150.0" cy="100.0" r="2.7" fill="#2c4a6e" opacity=".55"/>
<circle cx="155.7" cy="100.0" r="2.7" fill="#2c4a6e" opacity=".55"/>
<circle cx="155.7" cy="100.0" r="2.7" fill="#2c4a6e" opacity=".55"/>
<circle cx="155.7" cy="100.0" r="2.7" fill="#2c4a6e" opacity=".55"/>
<circle cx="161.5" cy="100.0" r="2.7" fill="#2c4a6e" opacity=".55"/>
<circle cx="161.5" cy="100.0" r="2.7" fill="#2c4a6e" opacity=".55"/>
<circle cx="167.2" cy="100.0" r="2.7" fill="#2c4a6e" opacity=".55"/>
<circle cx="167.2" cy="100.0" r="2.7" fill="#2c4a6e" opacity=".55"/>
<circle cx="167.2" cy="100.0" r="2.7" fill="#2c4a6e" opacity=".55"/>
<circle cx="167.2" cy="100.0" r="2.7" fill="#2c4a6e" opacity=".55"/>
<circle cx="173.0" cy="100.0" r="2.7" fill="#2c4a6e" opacity=".55"/>
<circle cx="173.0" cy="100.0" r="2.7" fill="#2c4a6e" opacity=".55"/>
<circle cx="173.0" cy="100.0" r="2.7" fill="#2c4a6e" opacity=".55"/>
<circle cx="173.0" cy="100.0" r="2.7" fill="#2c4a6e" opacity=".55"/>
<circle cx="178.7" cy="100.0" r="2.7" fill="#2c4a6e" opacity=".55"/>
<circle cx="178.7" cy="100.0" r="2.7" fill="#2c4a6e" opacity=".55"/>
<circle cx="178.7" cy="100.0" r="2.7" fill="#2c4a6e" opacity=".55"/>
<circle cx="178.7" cy="100.0" r="2.7" fill="#2c4a6e" opacity=".55"/>
<circle cx="184.5" cy="100.0" r="2.7" fill="#2c4a6e" opacity=".55"/>
<circle cx="196.0" cy="100.0" r="2.7" fill="#2c4a6e" opacity=".55"/>
<circle cx="207.5" cy="100.0" r="2.7" fill="#2c4a6e" opacity=".55"/>
<circle cx="155.7" cy="100.0" r="4.4" fill="#2c4a6e" stroke="#f5f0e8" stroke-width="1.4"/>
<text x="216.5" y="104.0" font-size="9" fill="#6b5e4a" font-family="Roboto Mono, monospace">IQR 4</text>
<text x="136" y="146.2" font-size="11.5" text-anchor="end" fill="#1a1208" font-weight="400">Notre Dame</text>
<text x="136" y="158.2" font-size="8.5" text-anchor="end" fill="#6b5e4a" font-family="Roboto Mono, monospace">No. 2</text>
<line x1="150.0" y1="142.2" x2="213.2" y2="142.2" stroke="#2c4a6e" stroke-width=".9" opacity=".35"/>
<rect x="155.7" y="135.2" width="11.5" height="14" fill="#2c4a6e" opacity=".20"/>
<circle cx="150.0" cy="142.2" r="2.7" fill="#2c4a6e" opacity=".55"/>
<circle cx="150.0" cy="142.2" r="2.7" fill="#2c4a6e" opacity=".55"/>
<circle cx="150.0" cy="142.2" r="2.7" fill="#2c4a6e" opacity=".55"/>
<circle cx="150.0" cy="142.2" r="2.7" fill="#2c4a6e" opacity=".55"/>
<circle cx="150.0" cy="142.2" r="2.7" fill="#2c4a6e" opacity=".55"/>
<circle cx="150.0" cy="142.2" r="2.7" fill="#2c4a6e" opacity=".55"/>
<circle cx="150.0" cy="142.2" r="2.7" fill="#2c4a6e" opacity=".55"/>
<circle cx="150.0" cy="142.2" r="2.7" fill="#2c4a6e" opacity=".55"/>
<circle cx="155.7" cy="142.2" r="2.7" fill="#2c4a6e" opacity=".55"/>
<circle cx="155.7" cy="142.2" r="2.7" fill="#2c4a6e" opacity=".55"/>
<circle cx="155.7" cy="142.2" r="2.7" fill="#2c4a6e" opacity=".55"/>
<circle cx="155.7" cy="142.2" r="2.7" fill="#2c4a6e" opacity=".55"/>
<circle cx="155.7" cy="142.2" r="2.7" fill="#2c4a6e" opacity=".55"/>
<circle cx="155.7" cy="142.2" r="2.7" fill="#2c4a6e" opacity=".55"/>
<circle cx="155.7" cy="142.2" r="2.7" fill="#2c4a6e" opacity=".55"/>
<circle cx="161.5" cy="142.2" r="2.7" fill="#2c4a6e" opacity=".55"/>
<circle cx="161.5" cy="142.2" r="2.7" fill="#2c4a6e" opacity=".55"/>
<circle cx="161.5" cy="142.2" r="2.7" fill="#2c4a6e" opacity=".55"/>
<circle cx="161.5" cy="142.2" r="2.7" fill="#2c4a6e" opacity=".55"/>
<circle cx="161.5" cy="142.2" r="2.7" fill="#2c4a6e" opacity=".55"/>
<circle cx="161.5" cy="142.2" r="2.7" fill="#2c4a6e" opacity=".55"/>
<circle cx="161.5" cy="142.2" r="2.7" fill="#2c4a6e" opacity=".55"/>
<circle cx="161.5" cy="142.2" r="2.7" fill="#2c4a6e" opacity=".55"/>
<circle cx="167.2" cy="142.2" r="2.7" fill="#2c4a6e" opacity=".55"/>
<circle cx="167.2" cy="142.2" r="2.7" fill="#2c4a6e" opacity=".55"/>
<circle cx="167.2" cy="142.2" r="2.7" fill="#2c4a6e" opacity=".55"/>
<circle cx="167.2" cy="142.2" r="2.7" fill="#2c4a6e" opacity=".55"/>
<circle cx="167.2" cy="142.2" r="2.7" fill="#2c4a6e" opacity=".55"/>
<circle cx="167.2" cy="142.2" r="2.7" fill="#2c4a6e" opacity=".55"/>
<circle cx="167.2" cy="142.2" r="2.7" fill="#2c4a6e" opacity=".55"/>
<circle cx="173.0" cy="142.2" r="2.7" fill="#2c4a6e" opacity=".55"/>
<circle cx="173.0" cy="142.2" r="2.7" fill="#2c4a6e" opacity=".55"/>
<circle cx="178.7" cy="142.2" r="2.7" fill="#2c4a6e" opacity=".55"/>
<circle cx="201.7" cy="142.2" r="2.7" fill="#2c4a6e" opacity=".55"/>
<circle cx="213.2" cy="142.2" r="2.7" fill="#2c4a6e" opacity=".55"/>
<circle cx="161.5" cy="142.2" r="4.4" fill="#2c4a6e" stroke="#f5f0e8" stroke-width="1.4"/>
<text x="222.2" y="146.2" font-size="9" fill="#6b5e4a" font-family="Roboto Mono, monospace">IQR 2</text>
<text x="136" y="188.5" font-size="11.5" text-anchor="end" fill="#1a1208" font-weight="400">Texas</text>
<text x="136" y="200.5" font-size="8.5" text-anchor="end" fill="#6b5e4a" font-family="Roboto Mono, monospace">No. 3</text>
<line x1="150.0" y1="184.5" x2="236.2" y2="184.5" stroke="#2c4a6e" stroke-width=".9" opacity=".35"/>
<rect x="155.7" y="177.5" width="28.7" height="14" fill="#2c4a6e" opacity=".20"/>
<circle cx="150.0" cy="184.5" r="2.7" fill="#2c4a6e" opacity=".55"/>
<circle cx="150.0" cy="184.5" r="2.7" fill="#2c4a6e" opacity=".55"/>
<circle cx="150.0" cy="184.5" r="2.7" fill="#2c4a6e" opacity=".55"/>
<circle cx="150.0" cy="184.5" r="2.7" fill="#2c4a6e" opacity=".55"/>
<circle cx="150.0" cy="184.5" r="2.7" fill="#2c4a6e" opacity=".55"/>
<circle cx="150.0" cy="184.5" r="2.7" fill="#2c4a6e" opacity=".55"/>
<circle cx="150.0" cy="184.5" r="2.7" fill="#2c4a6e" opacity=".55"/>
<circle cx="155.7" cy="184.5" r="2.7" fill="#2c4a6e" opacity=".55"/>
<circle cx="155.7" cy="184.5" r="2.7" fill="#2c4a6e" opacity=".55"/>
<circle cx="155.7" cy="184.5" r="2.7" fill="#2c4a6e" opacity=".55"/>
<circle cx="155.7" cy="184.5" r="2.7" fill="#2c4a6e" opacity=".55"/>
<circle cx="155.7" cy="184.5" r="2.7" fill="#2c4a6e" opacity=".55"/>
<circle cx="155.7" cy="184.5" r="2.7" fill="#2c4a6e" opacity=".55"/>
<circle cx="155.7" cy="184.5" r="2.7" fill="#2c4a6e" opacity=".55"/>
<circle cx="161.5" cy="184.5" r="2.7" fill="#2c4a6e" opacity=".55"/>
<circle cx="161.5" cy="184.5" r="2.7" fill="#2c4a6e" opacity=".55"/>
<circle cx="161.5" cy="184.5" r="2.7" fill="#2c4a6e" opacity=".55"/>
<circle cx="161.5" cy="184.5" r="2.7" fill="#2c4a6e" opacity=".55"/>
<circle cx="167.2" cy="184.5" r="2.7" fill="#2c4a6e" opacity=".55"/>
<circle cx="173.0" cy="184.5" r="2.7" fill="#2c4a6e" opacity=".55"/>
<circle cx="173.0" cy="184.5" r="2.7" fill="#2c4a6e" opacity=".55"/>
<circle cx="173.0" cy="184.5" r="2.7" fill="#2c4a6e" opacity=".55"/>
<circle cx="173.0" cy="184.5" r="2.7" fill="#2c4a6e" opacity=".55"/>
<circle cx="173.0" cy="184.5" r="2.7" fill="#2c4a6e" opacity=".55"/>
<circle cx="178.7" cy="184.5" r="2.7" fill="#2c4a6e" opacity=".55"/>
<circle cx="184.5" cy="184.5" r="2.7" fill="#2c4a6e" opacity=".55"/>
<circle cx="184.5" cy="184.5" r="2.7" fill="#2c4a6e" opacity=".55"/>
<circle cx="190.2" cy="184.5" r="2.7" fill="#2c4a6e" opacity=".55"/>
<circle cx="201.7" cy="184.5" r="2.7" fill="#2c4a6e" opacity=".55"/>
<circle cx="207.5" cy="184.5" r="2.7" fill="#2c4a6e" opacity=".55"/>
<circle cx="207.5" cy="184.5" r="2.7" fill="#2c4a6e" opacity=".55"/>
<circle cx="219.0" cy="184.5" r="2.7" fill="#2c4a6e" opacity=".55"/>
<circle cx="224.7" cy="184.5" r="2.7" fill="#2c4a6e" opacity=".55"/>
<circle cx="230.5" cy="184.5" r="2.7" fill="#2c4a6e" opacity=".55"/>
<circle cx="236.2" cy="184.5" r="2.7" fill="#2c4a6e" opacity=".55"/>
<circle cx="161.5" cy="184.5" r="4.4" fill="#2c4a6e" stroke="#f5f0e8" stroke-width="1.4"/>
<text x="245.2" y="188.5" font-size="9" fill="#6b5e4a" font-family="Roboto Mono, monospace">IQR 5</text>
<text x="136" y="230.8" font-size="11.5" text-anchor="end" fill="#1a1208" font-weight="400">Ohio St</text>
<text x="136" y="242.8" font-size="8.5" text-anchor="end" fill="#6b5e4a" font-family="Roboto Mono, monospace">No. 4</text>
<line x1="150.0" y1="226.8" x2="259.2" y2="226.8" stroke="#2c4a6e" stroke-width=".9" opacity=".35"/>
<rect x="161.5" y="219.8" width="28.7" height="14" fill="#2c4a6e" opacity=".20"/>
<circle cx="150.0" cy="226.8" r="2.7" fill="#2c4a6e" opacity=".55"/>
<circle cx="150.0" cy="226.8" r="2.7" fill="#2c4a6e" opacity=".55"/>
<circle cx="150.0" cy="226.8" r="2.7" fill="#2c4a6e" opacity=".55"/>
<circle cx="155.7" cy="226.8" r="2.7" fill="#2c4a6e" opacity=".55"/>
<circle cx="155.7" cy="226.8" r="2.7" fill="#2c4a6e" opacity=".55"/>
<circle cx="155.7" cy="226.8" r="2.7" fill="#2c4a6e" opacity=".55"/>
<circle cx="155.7" cy="226.8" r="2.7" fill="#2c4a6e" opacity=".55"/>
<circle cx="155.7" cy="226.8" r="2.7" fill="#2c4a6e" opacity=".55"/>
<circle cx="161.5" cy="226.8" r="2.7" fill="#2c4a6e" opacity=".55"/>
<circle cx="161.5" cy="226.8" r="2.7" fill="#2c4a6e" opacity=".55"/>
<circle cx="161.5" cy="226.8" r="2.7" fill="#2c4a6e" opacity=".55"/>
<circle cx="161.5" cy="226.8" r="2.7" fill="#2c4a6e" opacity=".55"/>
<circle cx="167.2" cy="226.8" r="2.7" fill="#2c4a6e" opacity=".55"/>
<circle cx="167.2" cy="226.8" r="2.7" fill="#2c4a6e" opacity=".55"/>
<circle cx="167.2" cy="226.8" r="2.7" fill="#2c4a6e" opacity=".55"/>
<circle cx="173.0" cy="226.8" r="2.7" fill="#2c4a6e" opacity=".55"/>
<circle cx="173.0" cy="226.8" r="2.7" fill="#2c4a6e" opacity=".55"/>
<circle cx="173.0" cy="226.8" r="2.7" fill="#2c4a6e" opacity=".55"/>
<circle cx="178.7" cy="226.8" r="2.7" fill="#2c4a6e" opacity=".55"/>
<circle cx="178.7" cy="226.8" r="2.7" fill="#2c4a6e" opacity=".55"/>
<circle cx="178.7" cy="226.8" r="2.7" fill="#2c4a6e" opacity=".55"/>
<circle cx="178.7" cy="226.8" r="2.7" fill="#2c4a6e" opacity=".55"/>
<circle cx="184.5" cy="226.8" r="2.7" fill="#2c4a6e" opacity=".55"/>
<circle cx="184.5" cy="226.8" r="2.7" fill="#2c4a6e" opacity=".55"/>
<circle cx="184.5" cy="226.8" r="2.7" fill="#2c4a6e" opacity=".55"/>
<circle cx="190.2" cy="226.8" r="2.7" fill="#2c4a6e" opacity=".55"/>
<circle cx="190.2" cy="226.8" r="2.7" fill="#2c4a6e" opacity=".55"/>
<circle cx="196.0" cy="226.8" r="2.7" fill="#2c4a6e" opacity=".55"/>
<circle cx="196.0" cy="226.8" r="2.7" fill="#2c4a6e" opacity=".55"/>
<circle cx="196.0" cy="226.8" r="2.7" fill="#2c4a6e" opacity=".55"/>
<circle cx="196.0" cy="226.8" r="2.7" fill="#2c4a6e" opacity=".55"/>
<circle cx="201.7" cy="226.8" r="2.7" fill="#2c4a6e" opacity=".55"/>
<circle cx="207.5" cy="226.8" r="2.7" fill="#2c4a6e" opacity=".55"/>
<circle cx="253.5" cy="226.8" r="2.7" fill="#2c4a6e" opacity=".55"/>
<circle cx="259.2" cy="226.8" r="2.7" fill="#2c4a6e" opacity=".55"/>
<circle cx="173.0" cy="226.8" r="4.4" fill="#2c4a6e" stroke="#f5f0e8" stroke-width="1.4"/>
<text x="268.2" y="230.8" font-size="9" fill="#6b5e4a" font-family="Roboto Mono, monospace">IQR 5</text>
<text x="136" y="273.0" font-size="11.5" text-anchor="end" fill="#1a1208" font-weight="400">Miami FL</text>
<text x="136" y="285.0" font-size="8.5" text-anchor="end" fill="#6b5e4a" font-family="Roboto Mono, monospace">No. 5</text>
<line x1="155.7" y1="269.0" x2="224.7" y2="269.0" stroke="#2c4a6e" stroke-width=".9" opacity=".35"/>
<rect x="167.2" y="262.0" width="28.7" height="14" fill="#2c4a6e" opacity=".20"/>
<circle cx="155.7" cy="269.0" r="2.7" fill="#2c4a6e" opacity=".55"/>
<circle cx="155.7" cy="269.0" r="2.7" fill="#2c4a6e" opacity=".55"/>
<circle cx="155.7" cy="269.0" r="2.7" fill="#2c4a6e" opacity=".55"/>
<circle cx="161.5" cy="269.0" r="2.7" fill="#2c4a6e" opacity=".55"/>
<circle cx="161.5" cy="269.0" r="2.7" fill="#2c4a6e" opacity=".55"/>
<circle cx="161.5" cy="269.0" r="2.7" fill="#2c4a6e" opacity=".55"/>
<circle cx="161.5" cy="269.0" r="2.7" fill="#2c4a6e" opacity=".55"/>
<circle cx="167.2" cy="269.0" r="2.7" fill="#2c4a6e" opacity=".55"/>
<circle cx="167.2" cy="269.0" r="2.7" fill="#2c4a6e" opacity=".55"/>
<circle cx="167.2" cy="269.0" r="2.7" fill="#2c4a6e" opacity=".55"/>
<circle cx="167.2" cy="269.0" r="2.7" fill="#2c4a6e" opacity=".55"/>
<circle cx="173.0" cy="269.0" r="2.7" fill="#2c4a6e" opacity=".55"/>
<circle cx="173.0" cy="269.0" r="2.7" fill="#2c4a6e" opacity=".55"/>
<circle cx="173.0" cy="269.0" r="2.7" fill="#2c4a6e" opacity=".55"/>
<circle cx="173.0" cy="269.0" r="2.7" fill="#2c4a6e" opacity=".55"/>
<circle cx="173.0" cy="269.0" r="2.7" fill="#2c4a6e" opacity=".55"/>
<circle cx="173.0" cy="269.0" r="2.7" fill="#2c4a6e" opacity=".55"/>
<circle cx="173.0" cy="269.0" r="2.7" fill="#2c4a6e" opacity=".55"/>
<circle cx="178.7" cy="269.0" r="2.7" fill="#2c4a6e" opacity=".55"/>
<circle cx="178.7" cy="269.0" r="2.7" fill="#2c4a6e" opacity=".55"/>
<circle cx="178.7" cy="269.0" r="2.7" fill="#2c4a6e" opacity=".55"/>
<circle cx="178.7" cy="269.0" r="2.7" fill="#2c4a6e" opacity=".55"/>
<circle cx="178.7" cy="269.0" r="2.7" fill="#2c4a6e" opacity=".55"/>
<circle cx="184.5" cy="269.0" r="2.7" fill="#2c4a6e" opacity=".55"/>
<circle cx="184.5" cy="269.0" r="2.7" fill="#2c4a6e" opacity=".55"/>
<circle cx="184.5" cy="269.0" r="2.7" fill="#2c4a6e" opacity=".55"/>
<circle cx="196.0" cy="269.0" r="2.7" fill="#2c4a6e" opacity=".55"/>
<circle cx="196.0" cy="269.0" r="2.7" fill="#2c4a6e" opacity=".55"/>
<circle cx="196.0" cy="269.0" r="2.7" fill="#2c4a6e" opacity=".55"/>
<circle cx="196.0" cy="269.0" r="2.7" fill="#2c4a6e" opacity=".55"/>
<circle cx="201.7" cy="269.0" r="2.7" fill="#2c4a6e" opacity=".55"/>
<circle cx="201.7" cy="269.0" r="2.7" fill="#2c4a6e" opacity=".55"/>
<circle cx="207.5" cy="269.0" r="2.7" fill="#2c4a6e" opacity=".55"/>
<circle cx="207.5" cy="269.0" r="2.7" fill="#2c4a6e" opacity=".55"/>
<circle cx="224.7" cy="269.0" r="2.7" fill="#2c4a6e" opacity=".55"/>
<circle cx="173.0" cy="269.0" r="4.4" fill="#2c4a6e" stroke="#f5f0e8" stroke-width="1.4"/>
<text x="233.7" y="273.0" font-size="9" fill="#6b5e4a" font-family="Roboto Mono, monospace">IQR 5</text>
<text x="136" y="315.2" font-size="11.5" text-anchor="end" fill="#1a1208" font-weight="400">Georgia</text>
<text x="136" y="327.2" font-size="8.5" text-anchor="end" fill="#6b5e4a" font-family="Roboto Mono, monospace">No. 6</text>
<line x1="150.0" y1="311.2" x2="265.0" y2="311.2" stroke="#2c4a6e" stroke-width=".9" opacity=".35"/>
<rect x="161.5" y="304.2" width="28.7" height="14" fill="#2c4a6e" opacity=".20"/>
<circle cx="150.0" cy="311.2" r="2.7" fill="#2c4a6e" opacity=".55"/>
<circle cx="155.7" cy="311.2" r="2.7" fill="#2c4a6e" opacity=".55"/>
<circle cx="155.7" cy="311.2" r="2.7" fill="#2c4a6e" opacity=".55"/>
<circle cx="155.7" cy="311.2" r="2.7" fill="#2c4a6e" opacity=".55"/>
<circle cx="155.7" cy="311.2" r="2.7" fill="#2c4a6e" opacity=".55"/>
<circle cx="155.7" cy="311.2" r="2.7" fill="#2c4a6e" opacity=".55"/>
<circle cx="161.5" cy="311.2" r="2.7" fill="#2c4a6e" opacity=".55"/>
<circle cx="161.5" cy="311.2" r="2.7" fill="#2c4a6e" opacity=".55"/>
<circle cx="161.5" cy="311.2" r="2.7" fill="#2c4a6e" opacity=".55"/>
<circle cx="161.5" cy="311.2" r="2.7" fill="#2c4a6e" opacity=".55"/>
<circle cx="161.5" cy="311.2" r="2.7" fill="#2c4a6e" opacity=".55"/>
<circle cx="167.2" cy="311.2" r="2.7" fill="#2c4a6e" opacity=".55"/>
<circle cx="167.2" cy="311.2" r="2.7" fill="#2c4a6e" opacity=".55"/>
<circle cx="167.2" cy="311.2" r="2.7" fill="#2c4a6e" opacity=".55"/>
<circle cx="167.2" cy="311.2" r="2.7" fill="#2c4a6e" opacity=".55"/>
<circle cx="173.0" cy="311.2" r="2.7" fill="#2c4a6e" opacity=".55"/>
<circle cx="173.0" cy="311.2" r="2.7" fill="#2c4a6e" opacity=".55"/>
<circle cx="173.0" cy="311.2" r="2.7" fill="#2c4a6e" opacity=".55"/>
<circle cx="173.0" cy="311.2" r="2.7" fill="#2c4a6e" opacity=".55"/>
<circle cx="173.0" cy="311.2" r="2.7" fill="#2c4a6e" opacity=".55"/>
<circle cx="178.7" cy="311.2" r="2.7" fill="#2c4a6e" opacity=".55"/>
<circle cx="178.7" cy="311.2" r="2.7" fill="#2c4a6e" opacity=".55"/>
<circle cx="178.7" cy="311.2" r="2.7" fill="#2c4a6e" opacity=".55"/>
<circle cx="178.7" cy="311.2" r="2.7" fill="#2c4a6e" opacity=".55"/>
<circle cx="184.5" cy="311.2" r="2.7" fill="#2c4a6e" opacity=".55"/>
<circle cx="184.5" cy="311.2" r="2.7" fill="#2c4a6e" opacity=".55"/>
<circle cx="190.2" cy="311.2" r="2.7" fill="#2c4a6e" opacity=".55"/>
<circle cx="201.7" cy="311.2" r="2.7" fill="#2c4a6e" opacity=".55"/>
<circle cx="207.5" cy="311.2" r="2.7" fill="#2c4a6e" opacity=".55"/>
<circle cx="207.5" cy="311.2" r="2.7" fill="#2c4a6e" opacity=".55"/>
<circle cx="219.0" cy="311.2" r="2.7" fill="#2c4a6e" opacity=".55"/>
<circle cx="224.7" cy="311.2" r="2.7" fill="#2c4a6e" opacity=".55"/>
<circle cx="253.5" cy="311.2" r="2.7" fill="#2c4a6e" opacity=".55"/>
<circle cx="259.2" cy="311.2" r="2.7" fill="#2c4a6e" opacity=".55"/>
<circle cx="265.0" cy="311.2" r="2.7" fill="#2c4a6e" opacity=".55"/>
<circle cx="173.0" cy="311.2" r="4.4" fill="#2c4a6e" stroke="#f5f0e8" stroke-width="1.4"/>
<text x="274.0" y="315.2" font-size="9" fill="#6b5e4a" font-family="Roboto Mono, monospace">IQR 5</text>
<text x="136" y="357.5" font-size="11.5" text-anchor="end" fill="#1a1208" font-weight="400">Michigan</text>
<text x="136" y="369.5" font-size="8.5" text-anchor="end" fill="#6b5e4a" font-family="Roboto Mono, monospace">No. 17</text>
<line x1="161.5" y1="353.5" x2="397.2" y2="353.5" stroke="#2c4a6e" stroke-width=".9" opacity=".35"/>
<rect x="207.5" y="346.5" width="69.0" height="14" fill="#2c4a6e" opacity=".20"/>
<circle cx="161.5" cy="353.5" r="2.7" fill="#2c4a6e" opacity=".55"/>
<circle cx="167.2" cy="353.5" r="2.7" fill="#2c4a6e" opacity=".55"/>
<circle cx="173.0" cy="353.5" r="2.7" fill="#2c4a6e" opacity=".55"/>
<circle cx="184.5" cy="353.5" r="2.7" fill="#2c4a6e" opacity=".55"/>
<circle cx="190.2" cy="353.5" r="2.7" fill="#2c4a6e" opacity=".55"/>
<circle cx="190.2" cy="353.5" r="2.7" fill="#2c4a6e" opacity=".55"/>
<circle cx="201.7" cy="353.5" r="2.7" fill="#2c4a6e" opacity=".55"/>
<circle cx="207.5" cy="353.5" r="2.7" fill="#2c4a6e" opacity=".55"/>
<circle cx="207.5" cy="353.5" r="2.7" fill="#2c4a6e" opacity=".55"/>
<circle cx="219.0" cy="353.5" r="2.7" fill="#2c4a6e" opacity=".55"/>
<circle cx="219.0" cy="353.5" r="2.7" fill="#2c4a6e" opacity=".55"/>
<circle cx="224.7" cy="353.5" r="2.7" fill="#2c4a6e" opacity=".55"/>
<circle cx="224.7" cy="353.5" r="2.7" fill="#2c4a6e" opacity=".55"/>
<circle cx="230.5" cy="353.5" r="2.7" fill="#2c4a6e" opacity=".55"/>
<circle cx="236.2" cy="353.5" r="2.7" fill="#2c4a6e" opacity=".55"/>
<circle cx="242.0" cy="353.5" r="2.7" fill="#2c4a6e" opacity=".55"/>
<circle cx="247.7" cy="353.5" r="2.7" fill="#2c4a6e" opacity=".55"/>
<circle cx="253.5" cy="353.5" r="2.7" fill="#2c4a6e" opacity=".55"/>
<circle cx="253.5" cy="353.5" r="2.7" fill="#2c4a6e" opacity=".55"/>
<circle cx="253.5" cy="353.5" r="2.7" fill="#2c4a6e" opacity=".55"/>
<circle cx="259.2" cy="353.5" r="2.7" fill="#2c4a6e" opacity=".55"/>
<circle cx="265.0" cy="353.5" r="2.7" fill="#2c4a6e" opacity=".55"/>
<circle cx="270.7" cy="353.5" r="2.7" fill="#2c4a6e" opacity=".55"/>
<circle cx="270.7" cy="353.5" r="2.7" fill="#2c4a6e" opacity=".55"/>
<circle cx="270.7" cy="353.5" r="2.7" fill="#2c4a6e" opacity=".55"/>
<circle cx="270.7" cy="353.5" r="2.7" fill="#2c4a6e" opacity=".55"/>
<circle cx="276.5" cy="353.5" r="2.7" fill="#2c4a6e" opacity=".55"/>
<circle cx="276.5" cy="353.5" r="2.7" fill="#2c4a6e" opacity=".55"/>
<circle cx="282.2" cy="353.5" r="2.7" fill="#2c4a6e" opacity=".55"/>
<circle cx="293.7" cy="353.5" r="2.7" fill="#2c4a6e" opacity=".55"/>
<circle cx="299.4" cy="353.5" r="2.7" fill="#2c4a6e" opacity=".55"/>
<circle cx="299.4" cy="353.5" r="2.7" fill="#2c4a6e" opacity=".55"/>
<circle cx="310.9" cy="353.5" r="2.7" fill="#2c4a6e" opacity=".55"/>
<circle cx="310.9" cy="353.5" r="2.7" fill="#2c4a6e" opacity=".55"/>
<circle cx="397.2" cy="353.5" r="2.7" fill="#2c4a6e" opacity=".55"/>
<circle cx="253.5" cy="353.5" r="4.4" fill="#2c4a6e" stroke="#f5f0e8" stroke-width="1.4"/>
<text x="406.2" y="357.5" font-size="9" fill="#6b5e4a" font-family="Roboto Mono, monospace">IQR 12</text>
<text x="136" y="399.8" font-size="11.5" text-anchor="end" fill="#1a1208" font-weight="700">Oregon</text>
<text x="136" y="411.8" font-size="8.5" text-anchor="end" fill="#6b5e4a" font-family="Roboto Mono, monospace">No. 19</text>
<line x1="173.0" y1="395.8" x2="581.1" y2="395.8" stroke="#b83a1e" stroke-width=".9" opacity=".35"/>
<rect x="219.0" y="388.8" width="69.0" height="14" fill="#b83a1e" opacity=".20"/>
<circle cx="173.0" cy="395.8" r="2.7" fill="#b83a1e" opacity=".55"/>
<circle cx="190.2" cy="395.8" r="2.7" fill="#b83a1e" opacity=".55"/>
<circle cx="196.0" cy="395.8" r="2.7" fill="#b83a1e" opacity=".55"/>
<circle cx="207.5" cy="395.8" r="2.7" fill="#b83a1e" opacity=".55"/>
<circle cx="207.5" cy="395.8" r="2.7" fill="#b83a1e" opacity=".55"/>
<circle cx="213.2" cy="395.8" r="2.7" fill="#b83a1e" opacity=".55"/>
<circle cx="213.2" cy="395.8" r="2.7" fill="#b83a1e" opacity=".55"/>
<circle cx="213.2" cy="395.8" r="2.7" fill="#b83a1e" opacity=".55"/>
<circle cx="219.0" cy="395.8" r="2.7" fill="#b83a1e" opacity=".55"/>
<circle cx="219.0" cy="395.8" r="2.7" fill="#b83a1e" opacity=".55"/>
<circle cx="219.0" cy="395.8" r="2.7" fill="#b83a1e" opacity=".55"/>
<circle cx="224.7" cy="395.8" r="2.7" fill="#b83a1e" opacity=".55"/>
<circle cx="230.5" cy="395.8" r="2.7" fill="#b83a1e" opacity=".55"/>
<circle cx="230.5" cy="395.8" r="2.7" fill="#b83a1e" opacity=".55"/>
<circle cx="236.2" cy="395.8" r="2.7" fill="#b83a1e" opacity=".55"/>
<circle cx="236.2" cy="395.8" r="2.7" fill="#b83a1e" opacity=".55"/>
<circle cx="236.2" cy="395.8" r="2.7" fill="#b83a1e" opacity=".55"/>
<circle cx="236.2" cy="395.8" r="2.7" fill="#b83a1e" opacity=".55"/>
<circle cx="242.0" cy="395.8" r="2.7" fill="#b83a1e" opacity=".55"/>
<circle cx="242.0" cy="395.8" r="2.7" fill="#b83a1e" opacity=".55"/>
<circle cx="247.7" cy="395.8" r="2.7" fill="#b83a1e" opacity=".55"/>
<circle cx="247.7" cy="395.8" r="2.7" fill="#b83a1e" opacity=".55"/>
<circle cx="259.2" cy="395.8" r="2.7" fill="#b83a1e" opacity=".55"/>
<circle cx="259.2" cy="395.8" r="2.7" fill="#b83a1e" opacity=".55"/>
<circle cx="265.0" cy="395.8" r="2.7" fill="#b83a1e" opacity=".55"/>
<circle cx="276.5" cy="395.8" r="2.7" fill="#b83a1e" opacity=".55"/>
<circle cx="287.9" cy="395.8" r="2.7" fill="#b83a1e" opacity=".55"/>
<circle cx="299.4" cy="395.8" r="2.7" fill="#b83a1e" opacity=".55"/>
<circle cx="310.9" cy="395.8" r="2.7" fill="#b83a1e" opacity=".55"/>
<circle cx="322.4" cy="395.8" r="2.7" fill="#b83a1e" opacity=".55"/>
<circle cx="333.9" cy="395.8" r="2.7" fill="#b83a1e" opacity=".55"/>
<circle cx="339.7" cy="395.8" r="2.7" fill="#b83a1e" opacity=".55"/>
<circle cx="339.7" cy="395.8" r="2.7" fill="#b83a1e" opacity=".55"/>
<circle cx="540.9" cy="395.8" r="2.7" fill="#b83a1e" opacity=".55"/>
<circle cx="581.1" cy="395.8" r="2.7" fill="#b83a1e" opacity=".55"/>
<circle cx="236.2" cy="395.8" r="4.4" fill="#b83a1e" stroke="#f5f0e8" stroke-width="1.4"/>
<text x="590.1" y="399.8" font-size="9" fill="#6b5e4a" font-family="Roboto Mono, monospace">IQR 12</text>
<text x="136" y="442.0" font-size="11.5" text-anchor="end" fill="#1a1208" font-weight="700">Oklahoma St</text>
<text x="136" y="454.0" font-size="8.5" text-anchor="end" fill="#6b5e4a" font-family="Roboto Mono, monospace">No. 79</text>
<line x1="362.7" y1="438.0" x2="811.0" y2="438.0" stroke="#b83a1e" stroke-width=".9" opacity=".35"/>
<rect x="474.8" y="431.0" width="252.9" height="14" fill="#b83a1e" opacity=".20"/>
<circle cx="362.7" cy="438.0" r="2.7" fill="#b83a1e" opacity=".55"/>
<circle cx="385.7" cy="438.0" r="2.7" fill="#b83a1e" opacity=".55"/>
<circle cx="414.4" cy="438.0" r="2.7" fill="#b83a1e" opacity=".55"/>
<circle cx="420.2" cy="438.0" r="2.7" fill="#b83a1e" opacity=".55"/>
<circle cx="448.9" cy="438.0" r="2.7" fill="#b83a1e" opacity=".55"/>
<circle cx="454.6" cy="438.0" r="2.7" fill="#b83a1e" opacity=".55"/>
<circle cx="454.6" cy="438.0" r="2.7" fill="#b83a1e" opacity=".55"/>
<circle cx="471.9" cy="438.0" r="2.7" fill="#b83a1e" opacity=".55"/>
<circle cx="477.6" cy="438.0" r="2.7" fill="#b83a1e" opacity=".55"/>
<circle cx="517.9" cy="438.0" r="2.7" fill="#b83a1e" opacity=".55"/>
<circle cx="517.9" cy="438.0" r="2.7" fill="#b83a1e" opacity=".55"/>
<circle cx="535.1" cy="438.0" r="2.7" fill="#b83a1e" opacity=".55"/>
<circle cx="535.1" cy="438.0" r="2.7" fill="#b83a1e" opacity=".55"/>
<circle cx="563.8" cy="438.0" r="2.7" fill="#b83a1e" opacity=".55"/>
<circle cx="627.1" cy="438.0" r="2.7" fill="#b83a1e" opacity=".55"/>
<circle cx="632.8" cy="438.0" r="2.7" fill="#b83a1e" opacity=".55"/>
<circle cx="655.8" cy="438.0" r="2.7" fill="#b83a1e" opacity=".55"/>
<circle cx="661.6" cy="438.0" r="2.7" fill="#b83a1e" opacity=".55"/>
<circle cx="661.6" cy="438.0" r="2.7" fill="#b83a1e" opacity=".55"/>
<circle cx="667.3" cy="438.0" r="2.7" fill="#b83a1e" opacity=".55"/>
<circle cx="673.1" cy="438.0" r="2.7" fill="#b83a1e" opacity=".55"/>
<circle cx="678.8" cy="438.0" r="2.7" fill="#b83a1e" opacity=".55"/>
<circle cx="713.3" cy="438.0" r="2.7" fill="#b83a1e" opacity=".55"/>
<circle cx="713.3" cy="438.0" r="2.7" fill="#b83a1e" opacity=".55"/>
<circle cx="719.0" cy="438.0" r="2.7" fill="#b83a1e" opacity=".55"/>
<circle cx="736.3" cy="438.0" r="2.7" fill="#b83a1e" opacity=".55"/>
<circle cx="747.8" cy="438.0" r="2.7" fill="#b83a1e" opacity=".55"/>
<circle cx="747.8" cy="438.0" r="2.7" fill="#b83a1e" opacity=".55"/>
<circle cx="747.8" cy="438.0" r="2.7" fill="#b83a1e" opacity=".55"/>
<circle cx="753.5" cy="438.0" r="2.7" fill="#b83a1e" opacity=".55"/>
<circle cx="782.3" cy="438.0" r="2.7" fill="#b83a1e" opacity=".55"/>
<circle cx="811.0" cy="438.0" r="2.7" fill="#b83a1e" opacity=".55"/>
<circle cx="811.0" cy="438.0" r="2.7" fill="#b83a1e" opacity=".55"/>
<circle cx="655.8" cy="438.0" r="4.4" fill="#b83a1e" stroke="#f5f0e8" stroke-width="1.4"/>
<text x="820.0" y="442.0" font-size="9" fill="#6b5e4a" font-family="Roboto Mono, monospace">IQR 44</text>
<text x="492.0" y="484" font-size="11" text-anchor="middle" fill="#1a1208">Rank assigned by an individual system</text>
<text x="44" y="520" font-size="11.5" font-weight="700" fill="#1a1208">ONE LOSS PUT OREGON BETWEEN 5TH AND 76TH. NOTRE DAME SITS BETWEEN 2ND AND 4TH.</text>
<text x="44" y="537" font-size="10.5" fill="#6b5e4a">Composite ranks are Kenneth Massey&#8217;s. The spread statistics are ours, computed from the 35 published system ranks.</text>
</svg>