<svg class="chart" viewBox="0 0 760 460" xmlns="http://www.w3.org/2000/svg" font-family="'Roboto Mono',monospace">
<rect x="0" y="0" width="760" height="460" fill="#ede5d2"/>
<line x1="125.65217391304353" y1="40" x2="125.65217391304353" y2="400" stroke="#c8b99a" stroke-width="1" stroke-dasharray="3,3"/>
<text x="125.65217391304353" y="418" text-anchor="middle" font-size="11" fill="#1a1208">14%</text>
<line x1="236.95652173913044" y1="40" x2="236.95652173913044" y2="400" stroke="#c8b99a" stroke-width="1" stroke-dasharray="3,3"/>
<text x="236.95652173913044" y="418" text-anchor="middle" font-size="11" fill="#1a1208">16%</text>
<line x1="348.2608695652174" y1="40" x2="348.2608695652174" y2="400" stroke="#c8b99a" stroke-width="1" stroke-dasharray="3,3"/>
<text x="348.2608695652174" y="418" text-anchor="middle" font-size="11" fill="#1a1208">18%</text>
<line x1="459.56521739130443" y1="40" x2="459.56521739130443" y2="400" stroke="#c8b99a" stroke-width="1" stroke-dasharray="3,3"/>
<text x="459.56521739130443" y="418" text-anchor="middle" font-size="11" fill="#1a1208">20%</text>
<line x1="570.8695652173913" y1="40" x2="570.8695652173913" y2="400" stroke="#c8b99a" stroke-width="1" stroke-dasharray="3,3"/>
<text x="570.8695652173913" y="418" text-anchor="middle" font-size="11" fill="#1a1208">22%</text>
<line x1="682.1739130434783" y1="40" x2="682.1739130434783" y2="400" stroke="#c8b99a" stroke-width="1" stroke-dasharray="3,3"/>
<text x="682.1739130434783" y="418" text-anchor="middle" font-size="11" fill="#1a1208">24%</text>
<line x1="70" y1="321.73913043478257" x2="710" y2="321.73913043478257" stroke="#c8b99a" stroke-width="1" stroke-dasharray="3,3"/>
<text x="62" y="325.73913043478257" text-anchor="end" font-size="11" fill="#6b5e4a">8.0%</text>
<line x1="70" y1="243.47826086956513" x2="710" y2="243.47826086956513" stroke="#c8b99a" stroke-width="1" stroke-dasharray="3,3"/>
<text x="62" y="247.47826086956513" text-anchor="end" font-size="11" fill="#6b5e4a">8.5%</text>
<line x1="70" y1="165.2173913043479" x2="710" y2="165.2173913043479" stroke="#c8b99a" stroke-width="1" stroke-dasharray="3,3"/>
<text x="62" y="169.2173913043479" text-anchor="end" font-size="11" fill="#6b5e4a">9.0%</text>
<line x1="70" y1="86.95652173913044" x2="710" y2="86.95652173913044" stroke="#c8b99a" stroke-width="1" stroke-dasharray="3,3"/>
<text x="62" y="90.95652173913044" text-anchor="end" font-size="11" fill="#6b5e4a">9.5%</text>
<line x1="70" y1="40" x2="70" y2="400" stroke="#1a1208" stroke-width="2"/>
<line x1="70" y1="400" x2="710" y2="400" stroke="#1a1208" stroke-width="2"/>
<text x="390.0" y="445" text-anchor="middle" font-size="13" fill="#1a1208" font-weight="600">Strikeouts per plate appearance</text>
<text transform="rotate(-90,22,220.0)" x="22" y="220.0" text-anchor="middle" font-size="13" fill="#1a1208" font-weight="600">Walks per plate appearance</text>
<polyline points="125.9,223.0 201.3,189.6 209.2,183.1 162.0,298.7 168.9,250.8 174.6,221.6 190.9,212.3 162.4,240.0 185.3,219.1 230.2,174.3 249.5,151.6 266.7,152.9 295.6,177.1 289.2,206.7 259.5,97.6 263.7,73.7 311.0,250.8 282.8,211.2 261.0,247.2 286.0,227.2 261.9,296.2 283.2,255.1 296.2,239.7 321.9,211.1 345.8,183.4 375.5,243.0 382.7,305.0 447.2,323.9 451.6,334.4 479.4,380.7 481.4,374.3 521.8,294.5 551.0,236.7 585.2,247.7 624.2,240.0 650.7,140.2 636.5,214.2 594.1,296.9 611.4,229.1 603.1,293.1 583.1,258.0 572.5,136.6" fill="none" stroke="#6b5e4a" stroke-width="1.2" opacity="0.35"/>
<circle cx="125.9" cy="223.0" r="6" fill="#6b5e4a" fill-opacity="1.0" stroke="#1a1208" stroke-width="1.2"/>
<circle cx="201.3" cy="189.6" r="3" fill="#6b5e4a" fill-opacity="0.5" stroke="#1a1208" stroke-width="0.4"/>
<circle cx="209.2" cy="183.1" r="3" fill="#6b5e4a" fill-opacity="0.5" stroke="#1a1208" stroke-width="0.4"/>
<circle cx="162.0" cy="298.7" r="3" fill="#6b5e4a" fill-opacity="0.5" stroke="#1a1208" stroke-width="0.4"/>
<circle cx="168.9" cy="250.8" r="3" fill="#6b5e4a" fill-opacity="0.5" stroke="#1a1208" stroke-width="0.4"/>
<circle cx="174.6" cy="221.6" r="3" fill="#6b5e4a" fill-opacity="0.5" stroke="#1a1208" stroke-width="0.4"/>
<circle cx="190.9" cy="212.3" r="3" fill="#6b5e4a" fill-opacity="0.5" stroke="#1a1208" stroke-width="0.4"/>
<circle cx="162.4" cy="240.0" r="3" fill="#6b5e4a" fill-opacity="0.5" stroke="#1a1208" stroke-width="0.4"/>
<circle cx="185.3" cy="219.1" r="3" fill="#6b5e4a" fill-opacity="0.5" stroke="#1a1208" stroke-width="0.4"/>
<circle cx="230.2" cy="174.3" r="6" fill="#8b1e3f" fill-opacity="1.0" stroke="#1a1208" stroke-width="1.2"/>
<circle cx="249.5" cy="151.6" r="3" fill="#6b5e4a" fill-opacity="0.5" stroke="#1a1208" stroke-width="0.4"/>
<circle cx="266.7" cy="152.9" r="3" fill="#6b5e4a" fill-opacity="0.5" stroke="#1a1208" stroke-width="0.4"/>
<circle cx="295.6" cy="177.1" r="3" fill="#6b5e4a" fill-opacity="0.5" stroke="#1a1208" stroke-width="0.4"/>
<circle cx="289.2" cy="206.7" r="3" fill="#6b5e4a" fill-opacity="0.5" stroke="#1a1208" stroke-width="0.4"/>
<circle cx="259.5" cy="97.6" r="3" fill="#6b5e4a" fill-opacity="0.5" stroke="#1a1208" stroke-width="0.4"/>
<circle cx="263.7" cy="73.7" r="6" fill="#6b5e4a" fill-opacity="1.0" stroke="#1a1208" stroke-width="1.2"/>
<circle cx="311.0" cy="250.8" r="3" fill="#6b5e4a" fill-opacity="0.5" stroke="#1a1208" stroke-width="0.4"/>
<circle cx="282.8" cy="211.2" r="3" fill="#6b5e4a" fill-opacity="0.5" stroke="#1a1208" stroke-width="0.4"/>
<circle cx="261.0" cy="247.2" r="3" fill="#6b5e4a" fill-opacity="0.5" stroke="#1a1208" stroke-width="0.4"/>
<circle cx="286.0" cy="227.2" r="3" fill="#6b5e4a" fill-opacity="0.5" stroke="#1a1208" stroke-width="0.4"/>
<circle cx="261.9" cy="296.2" r="3" fill="#6b5e4a" fill-opacity="0.5" stroke="#1a1208" stroke-width="0.4"/>
<circle cx="283.2" cy="255.1" r="3" fill="#6b5e4a" fill-opacity="0.5" stroke="#1a1208" stroke-width="0.4"/>
<circle cx="296.2" cy="239.7" r="3" fill="#6b5e4a" fill-opacity="0.5" stroke="#1a1208" stroke-width="0.4"/>
<circle cx="321.9" cy="211.1" r="3" fill="#6b5e4a" fill-opacity="0.5" stroke="#1a1208" stroke-width="0.4"/>
<circle cx="345.8" cy="183.4" r="3" fill="#6b5e4a" fill-opacity="0.5" stroke="#1a1208" stroke-width="0.4"/>
<circle cx="375.5" cy="243.0" r="3" fill="#6b5e4a" fill-opacity="0.5" stroke="#1a1208" stroke-width="0.4"/>
<circle cx="382.7" cy="305.0" r="3" fill="#6b5e4a" fill-opacity="0.5" stroke="#1a1208" stroke-width="0.4"/>
<circle cx="447.2" cy="323.9" r="3" fill="#6b5e4a" fill-opacity="0.5" stroke="#1a1208" stroke-width="0.4"/>
<circle cx="451.6" cy="334.4" r="3" fill="#6b5e4a" fill-opacity="0.5" stroke="#1a1208" stroke-width="0.4"/>
<circle cx="479.4" cy="380.7" r="6" fill="#6b5e4a" fill-opacity="1.0" stroke="#1a1208" stroke-width="1.2"/>
<circle cx="481.4" cy="374.3" r="3" fill="#6b5e4a" fill-opacity="0.5" stroke="#1a1208" stroke-width="0.4"/>
<circle cx="521.8" cy="294.5" r="3" fill="#6b5e4a" fill-opacity="0.5" stroke="#1a1208" stroke-width="0.4"/>
<circle cx="551.0" cy="236.7" r="3" fill="#6b5e4a" fill-opacity="0.5" stroke="#1a1208" stroke-width="0.4"/>
<circle cx="585.2" cy="247.7" r="6" fill="#2c4a6e" fill-opacity="1.0" stroke="#1a1208" stroke-width="1.2"/>
<circle cx="624.2" cy="240.0" r="3" fill="#6b5e4a" fill-opacity="0.5" stroke="#1a1208" stroke-width="0.4"/>
<circle cx="650.7" cy="140.2" r="6" fill="#c9962a" fill-opacity="1.0" stroke="#1a1208" stroke-width="1.2"/>
<circle cx="636.5" cy="214.2" r="6" fill="#c9962a" fill-opacity="1.0" stroke="#1a1208" stroke-width="1.2"/>
<circle cx="594.1" cy="296.9" r="3" fill="#6b5e4a" fill-opacity="0.5" stroke="#1a1208" stroke-width="0.4"/>
<circle cx="611.4" cy="229.1" r="6" fill="#2c4a6e" fill-opacity="1.0" stroke="#1a1208" stroke-width="1.2"/>
<circle cx="603.1" cy="293.1" r="3" fill="#6b5e4a" fill-opacity="0.5" stroke="#1a1208" stroke-width="0.4"/>
<circle cx="583.1" cy="258.0" r="6" fill="#2c4a6e" fill-opacity="1.0" stroke="#1a1208" stroke-width="1.2"/>
<circle cx="572.5" cy="136.6" r="6" fill="#b83a1e" fill-opacity="1.0" stroke="#1a1208" stroke-width="1.2"/>
<text x="135.9" y="227.0" text-anchor="start" font-family="Playfair Display" font-size="13" font-weight="400" fill="#6b5e4a">1985</text>
<text x="240.2" y="170.3" text-anchor="start" font-family="Playfair Display" font-size="13" font-weight="400" fill="#8b1e3f">1994</text>
<text x="254.7" y="77.7" text-anchor="end" font-family="Playfair Display" font-size="13" font-weight="400" fill="#6b5e4a">2000</text>
<text x="489.4" y="384.7" text-anchor="start" font-family="Playfair Display" font-size="13" font-weight="400" fill="#6b5e4a">2014</text>
<text x="576.2" y="251.7" text-anchor="end" font-family="Playfair Display" font-size="13" font-weight="400" fill="#2c4a6e">2018</text>
<text x="660.7" y="144.2" text-anchor="start" font-family="Playfair Display" font-size="13" font-weight="400" fill="#c9962a">2020</text>
<text x="627.5" y="206.2" text-anchor="end" font-family="Playfair Display" font-size="13" font-weight="700" fill="#c9962a">2021</text>
<text x="602.4" y="221.1" text-anchor="end" font-family="Playfair Display" font-size="13" font-weight="400" fill="#2c4a6e">2023</text>
<text x="593.1" y="262.0" text-anchor="start" font-family="Playfair Display" font-size="13" font-weight="400" fill="#2c4a6e">2025</text>
<text x="582.5" y="132.6" text-anchor="start" font-family="Playfair Display" font-size="13" font-weight="700" fill="#b83a1e">2026</text>
<text x="130.65217391304353" y="259.13043478260863" font-family="Playfair Display" font-style="italic" font-size="11" fill="#6b5e4a">contact era</text>
<text x="565.8695652173913" y="368.695652173913" text-anchor="end" font-family="Playfair Display" font-style="italic" font-size="11" fill="#6b5e4a">strikeout era</text>
<circle cx="565.3" cy="157.4" r="40" fill="none" stroke="#b83a1e" stroke-width="1.4" stroke-dasharray="4,3" opacity="0.6"/>
<text x="610.304347826087" y="127.39130434782618" font-family="Playfair Display" font-style="italic" font-size="12" font-weight="700" fill="#b83a1e">2026's neighborhood</text>
</svg>