<svg class="chart" viewBox="0 0 760 480" xmlns="http://www.w3.org/2000/svg" font-family="'Roboto Mono',monospace">
<rect x="0" y="0" width="760" height="480" fill="#ede5d2"/>
<text x="342.5" y="30" text-anchor="middle" font-family="Playfair Display" font-size="14" font-weight="700" fill="#1a1208">Five teams have looked like the 2026 Astros. None won a title afterward.</text>
<line x1="70" y1="393.57142857142856" x2="615" y2="393.57142857142856" stroke="#c8b99a" stroke-width="1" stroke-dasharray="3,3"/>
<text x="62" y="396.57142857142856" text-anchor="end" font-size="11" fill="#6b5e4a">0.40</text>
<line x1="70" y1="327.5" x2="615" y2="327.5" stroke="#c8b99a" stroke-width="1" stroke-dasharray="3,3"/>
<text x="62" y="330.5" text-anchor="end" font-size="11" fill="#6b5e4a">0.45</text>
<line x1="70" y1="261.42857142857144" x2="615" y2="261.42857142857144" stroke="#1a1208" stroke-width="1.5" stroke-dasharray="5,4" opacity="0.5"/>
<text x="62" y="264.42857142857144" text-anchor="end" font-size="11" fill="#6b5e4a">0.50</text>
<line x1="70" y1="195.35714285714283" x2="615" y2="195.35714285714283" stroke="#2a6e3f" stroke-width="1" stroke-dasharray="4,4" opacity="0.4"/>
<text x="62" y="198.35714285714283" text-anchor="end" font-size="11" fill="#6b5e4a">0.55</text>
<line x1="70" y1="129.28571428571433" x2="615" y2="129.28571428571433" stroke="#c8b99a" stroke-width="1" stroke-dasharray="3,3"/>
<text x="62" y="132.28571428571433" text-anchor="end" font-size="11" fill="#6b5e4a">0.60</text>
<line x1="70" y1="63.21428571428571" x2="615" y2="63.21428571428571" stroke="#c8b99a" stroke-width="1" stroke-dasharray="3,3"/>
<text x="62" y="66.21428571428571" text-anchor="end" font-size="11" fill="#6b5e4a">0.65</text>
<text x="610" y="256.42857142857144" text-anchor="end" font-size="10" fill="#6b5e4a" font-style="italic">.500</text>
<text x="610" y="190.35714285714283" text-anchor="end" font-size="10" fill="#2a6e3f" font-style="italic">playoff bubble (~.550)</text>
<text x="70.0" y="438" text-anchor="middle" font-size="11" fill="#1a1208">0</text>
<line x1="147.85714285714283" y1="50" x2="147.85714285714283" y2="420" stroke="#c8b99a" stroke-width="1" stroke-dasharray="3,3"/>
<text x="147.85714285714283" y="438" text-anchor="middle" font-size="11" fill="#1a1208">1</text>
<line x1="225.7142857142857" y1="50" x2="225.7142857142857" y2="420" stroke="#c8b99a" stroke-width="1" stroke-dasharray="3,3"/>
<text x="225.7142857142857" y="438" text-anchor="middle" font-size="11" fill="#1a1208">2</text>
<line x1="303.57142857142856" y1="50" x2="303.57142857142856" y2="420" stroke="#c8b99a" stroke-width="1" stroke-dasharray="3,3"/>
<text x="303.57142857142856" y="438" text-anchor="middle" font-size="11" fill="#1a1208">3</text>
<line x1="381.4285714285714" y1="50" x2="381.4285714285714" y2="420" stroke="#c8b99a" stroke-width="1" stroke-dasharray="3,3"/>
<text x="381.4285714285714" y="438" text-anchor="middle" font-size="11" fill="#1a1208">4</text>
<line x1="459.2857142857143" y1="50" x2="459.2857142857143" y2="420" stroke="#c8b99a" stroke-width="1" stroke-dasharray="3,3"/>
<text x="459.2857142857143" y="438" text-anchor="middle" font-size="11" fill="#1a1208">5</text>
<line x1="537.1428571428571" y1="50" x2="537.1428571428571" y2="420" stroke="#c8b99a" stroke-width="1" stroke-dasharray="3,3"/>
<text x="537.1428571428571" y="438" text-anchor="middle" font-size="11" fill="#1a1208">6</text>
<line x1="615.0" y1="50" x2="615.0" y2="420" stroke="#c8b99a" stroke-width="1" stroke-dasharray="3,3"/>
<text x="615.0" y="438" text-anchor="middle" font-size="11" fill="#1a1208">7</text>
<text x="342.5" y="465" text-anchor="middle" font-size="12" fill="#1a1208" font-weight="600">years after the analog season (year 0 = analog itself)</text>
<text transform="rotate(-90,20,235.0)" x="20" y="235.0" text-anchor="middle" font-size="12" fill="#1a1208" font-weight="600">winning percentage</text>
<line x1="70" y1="50" x2="70" y2="420" stroke="#1a1208" stroke-width="2"/>
<line x1="70" y1="420" x2="615" y2="420" stroke="#1a1208" stroke-width="2"/>
<polyline points="70.0,326.2 147.9,375.1 225.7,217.8 303.6,179.5 381.4,171.6 459.3,196.7 537.1,318.2 615.0,155.7" fill="none" stroke="#2a6e3f" stroke-width="2"/>
<circle cx="70.0" cy="326.2" r="3" fill="#2a6e3f" stroke="#fff" stroke-width="0.8"/>
<circle cx="147.9" cy="375.1" r="3" fill="#2a6e3f" stroke="#fff" stroke-width="0.8"/>
<circle cx="225.7" cy="217.8" r="3" fill="#2a6e3f" stroke="#fff" stroke-width="0.8"/>
<circle cx="303.6" cy="179.5" r="3" fill="#2a6e3f" stroke="#fff" stroke-width="0.8"/>
<circle cx="381.4" cy="171.6" r="3" fill="#2a6e3f" stroke="#fff" stroke-width="0.8"/>
<circle cx="459.3" cy="196.7" r="3" fill="#2a6e3f" stroke="#fff" stroke-width="0.8"/>
<circle cx="537.1" cy="318.2" r="3" fill="#2a6e3f" stroke="#fff" stroke-width="0.8"/>
<circle cx="615.0" cy="155.7" r="3" fill="#2a6e3f" stroke="#fff" stroke-width="0.8"/>
<polyline points="70.0,351.3 147.9,294.5 225.7,220.5 303.6,350.0 381.4,294.5 459.3,97.6 537.1,310.3 615.0,196.7" fill="none" stroke="#8b1e3f" stroke-width="2"/>
<circle cx="70.0" cy="351.3" r="3" fill="#8b1e3f" stroke="#fff" stroke-width="0.8"/>
<circle cx="147.9" cy="294.5" r="3" fill="#8b1e3f" stroke="#fff" stroke-width="0.8"/>
<circle cx="225.7" cy="220.5" r="3" fill="#8b1e3f" stroke="#fff" stroke-width="0.8"/>
<circle cx="303.6" cy="350.0" r="3" fill="#8b1e3f" stroke="#fff" stroke-width="0.8"/>
<circle cx="381.4" cy="294.5" r="3" fill="#8b1e3f" stroke="#fff" stroke-width="0.8"/>
<circle cx="459.3" cy="97.6" r="3" fill="#8b1e3f" stroke="#fff" stroke-width="0.8"/>
<circle cx="537.1" cy="310.3" r="3" fill="#8b1e3f" stroke="#fff" stroke-width="0.8"/>
<circle cx="615.0" cy="196.7" r="3" fill="#8b1e3f" stroke="#fff" stroke-width="0.8"/>
<polyline points="70.0,326.2 147.9,286.5 225.7,212.5 303.6,253.5 381.4,351.3" fill="none" stroke="#c9962a" stroke-width="2"/>
<circle cx="70.0" cy="326.2" r="3" fill="#c9962a" stroke="#fff" stroke-width="0.8"/>
<circle cx="147.9" cy="286.5" r="3" fill="#c9962a" stroke="#fff" stroke-width="0.8"/>
<circle cx="225.7" cy="212.5" r="3" fill="#c9962a" stroke="#fff" stroke-width="0.8"/>
<circle cx="303.6" cy="253.5" r="3" fill="#c9962a" stroke="#fff" stroke-width="0.8"/>
<circle cx="381.4" cy="351.3" r="3" fill="#c9962a" stroke="#fff" stroke-width="0.8"/>
<polyline points="70.0,343.4 147.9,245.6 225.7,286.5" fill="none" stroke="#2c4a6e" stroke-width="2"/>
<circle cx="70.0" cy="343.4" r="3" fill="#2c4a6e" stroke="#fff" stroke-width="0.8"/>
<circle cx="147.9" cy="245.6" r="3" fill="#2c4a6e" stroke="#fff" stroke-width="0.8"/>
<circle cx="225.7" cy="286.5" r="3" fill="#2c4a6e" stroke="#fff" stroke-width="0.8"/>
<polyline points="70.0,335.4 147.9,350.0 225.7,294.5 303.6,326.2 381.4,326.2 459.3,408.1 537.1,335.4" fill="none" stroke="#6b5e4a" stroke-width="2"/>
<circle cx="70.0" cy="335.4" r="3" fill="#6b5e4a" stroke="#fff" stroke-width="0.8"/>
<circle cx="147.9" cy="350.0" r="3" fill="#6b5e4a" stroke="#fff" stroke-width="0.8"/>
<circle cx="225.7" cy="294.5" r="3" fill="#6b5e4a" stroke="#fff" stroke-width="0.8"/>
<circle cx="303.6" cy="326.2" r="3" fill="#6b5e4a" stroke="#fff" stroke-width="0.8"/>
<circle cx="381.4" cy="326.2" r="3" fill="#6b5e4a" stroke="#fff" stroke-width="0.8"/>
<circle cx="459.3" cy="408.1" r="3" fill="#6b5e4a" stroke="#fff" stroke-width="0.8"/>
<circle cx="537.1" cy="335.4" r="3" fill="#6b5e4a" stroke="#fff" stroke-width="0.8"/>
<circle cx="70.0" cy="326.2" r="10" fill="#b83a1e" stroke="#1a1208" stroke-width="2"/>
<circle cx="70.0" cy="326.2" r="4" fill="#fff"/>
<text x="85.0" y="330.2" font-family="Playfair Display" font-size="13" font-weight="700" fill="#b83a1e">2026 Astros are here</text>
<rect x="627" y="54" width="135" height="160" fill="#fff" stroke="#c8b99a" stroke-width="1"/>
<line x1="635" y1="70" x2="652" y2="70" stroke="#2a6e3f" stroke-width="2.5"/>
<text x="657" y="74" font-size="11" fill="#1a1208">2018 Blue Jays</text>
<line x1="635" y1="90" x2="652" y2="90" stroke="#8b1e3f" stroke-width="2.5"/>
<text x="657" y="94" font-size="11" fill="#1a1208">2017 Mets</text>
<line x1="635" y1="110" x2="652" y2="110" stroke="#c9962a" stroke-width="2.5"/>
<text x="657" y="114" font-size="11" fill="#1a1208">2021 Twins</text>
<line x1="635" y1="130" x2="652" y2="130" stroke="#2c4a6e" stroke-width="2.5"/>
<text x="657" y="134" font-size="11" fill="#1a1208">2023 Cardinals</text>
<line x1="635" y1="150" x2="652" y2="150" stroke="#6b5e4a" stroke-width="2.5"/>
<text x="657" y="154" font-size="11" fill="#1a1208">2019 Angels</text>
<circle cx="644" cy="180" r="6" fill="#b83a1e" stroke="#1a1208" stroke-width="1"/>
<text x="657" y="184" font-size="11" fill="#1a1208" font-weight="700">2026 Astros</text>
</svg>