<svg class="chart" viewBox="0 0 760 520" xmlns="http://www.w3.org/2000/svg" font-family="'Roboto Mono',monospace">
<rect x="0" y="0" width="760" height="520" fill="#ede5d2"/>
<rect x="418.87368421052605" y="50" width="291.12631578947395" height="182.63636363636363" fill="#2a6e3f" opacity="0.08"/>
<rect x="80" y="50" width="338.87368421052605" height="182.63636363636363" fill="#b83a1e" opacity="0.08"/>
<rect x="418.87368421052605" y="232.63636363636363" width="291.12631578947395" height="227.36363636363637" fill="#c9962a" opacity="0.08"/>
<rect x="80" y="232.63636363636363" width="338.87368421052605" height="227.36363636363637" fill="#6b5e4a" opacity="0.10"/>
<line x1="179.4736842105264" y1="50" x2="179.4736842105264" y2="460" stroke="#c8b99a" stroke-width="1" stroke-dasharray="3,3"/>
<text x="179.4736842105264" y="478" text-anchor="middle" font-size="11" fill="#1a1208">0.65</text>
<line x1="345.2631578947366" y1="50" x2="345.2631578947366" y2="460" stroke="#c8b99a" stroke-width="1" stroke-dasharray="3,3"/>
<text x="345.2631578947366" y="478" text-anchor="middle" font-size="11" fill="#1a1208">0.70</text>
<line x1="511.0526315789472" y1="50" x2="511.0526315789472" y2="460" stroke="#c8b99a" stroke-width="1" stroke-dasharray="3,3"/>
<text x="511.0526315789472" y="478" text-anchor="middle" font-size="11" fill="#1a1208">0.75</text>
<line x1="676.8421052631578" y1="50" x2="676.8421052631578" y2="460" stroke="#c8b99a" stroke-width="1" stroke-dasharray="3,3"/>
<text x="676.8421052631578" y="478" text-anchor="middle" font-size="11" fill="#1a1208">0.80</text>
<line x1="80" y1="422.72727272727275" x2="710" y2="422.72727272727275" stroke="#c8b99a" stroke-width="1" stroke-dasharray="3,3"/>
<text x="72" y="426.72727272727275" text-anchor="end" font-size="11" fill="#6b5e4a">0.06</text>
<line x1="80" y1="348.1818181818182" x2="710" y2="348.1818181818182" stroke="#c8b99a" stroke-width="1" stroke-dasharray="3,3"/>
<text x="72" y="352.1818181818182" text-anchor="end" font-size="11" fill="#6b5e4a">0.08</text>
<line x1="80" y1="273.6363636363636" x2="710" y2="273.6363636363636" stroke="#c8b99a" stroke-width="1" stroke-dasharray="3,3"/>
<text x="72" y="277.6363636363636" text-anchor="end" font-size="11" fill="#6b5e4a">0.10</text>
<line x1="80" y1="199.09090909090915" x2="710" y2="199.09090909090915" stroke="#c8b99a" stroke-width="1" stroke-dasharray="3,3"/>
<text x="72" y="203.09090909090915" text-anchor="end" font-size="11" fill="#6b5e4a">0.12</text>
<line x1="80" y1="124.54545454545452" x2="710" y2="124.54545454545452" stroke="#c8b99a" stroke-width="1" stroke-dasharray="3,3"/>
<text x="72" y="128.5454545454545" text-anchor="end" font-size="11" fill="#6b5e4a">0.14</text>
<line x1="418.87368421052605" y1="50" x2="418.87368421052605" y2="460" stroke="#1a1208" stroke-width="1" stroke-dasharray="2,4" opacity="0.4"/>
<line x1="80" y1="232.63636363636363" x2="710" y2="232.63636363636363" stroke="#1a1208" stroke-width="1" stroke-dasharray="2,4" opacity="0.4"/>
<line x1="80" y1="50" x2="80" y2="460" stroke="#1a1208" stroke-width="2"/>
<line x1="80" y1="460" x2="710" y2="460" stroke="#1a1208" stroke-width="2"/>
<text x="395.0" y="505" text-anchor="middle" font-size="13" fill="#1a1208" font-weight="600">Team mean OPS (PA-weighted)</text>
<text transform="rotate(-90,22,255.0)" x="22" y="255.0" text-anchor="middle" font-size="13" fill="#1a1208" font-weight="600">Within-team OPS standard deviation</text>
<text x="660.2631578947369" y="68.63636363636367" text-anchor="end" font-size="11" font-style="italic" fill="#2a6e3f" font-weight="600">Top-heavy excellence</text>
<text x="660.2631578947369" y="422.72727272727275" text-anchor="end" font-size="11" font-style="italic" fill="#c9962a" font-weight="600">Clustered excellence</text>
<text x="96.57894736842107" y="68.63636363636367" font-size="11" font-style="italic" fill="#b83a1e" font-weight="600">Top-heavy mediocrity</text>
<text x="96.57894736842107" y="422.72727272727275" font-size="11" font-style="italic" fill="#6b5e4a" font-weight="600">Clustered mediocrity</text>
<circle cx="511.4" cy="113.7" r="4" fill="#6b5e4a" fill-opacity="0.6" stroke="#1a1208" stroke-width="0.6"/>
<circle cx="480.5" cy="236.7" r="4" fill="#6b5e4a" fill-opacity="0.6" stroke="#1a1208" stroke-width="0.6"/>
<circle cx="200.4" cy="296.7" r="4" fill="#6b5e4a" fill-opacity="0.6" stroke="#1a1208" stroke-width="0.6"/>
<circle cx="418.9" cy="197.2" r="4" fill="#6b5e4a" fill-opacity="0.6" stroke="#1a1208" stroke-width="0.6"/>
<circle cx="489.5" cy="275.1" r="4" fill="#6b5e4a" fill-opacity="0.6" stroke="#1a1208" stroke-width="0.6"/>
<circle cx="396.0" cy="187.9" r="4" fill="#6b5e4a" fill-opacity="0.6" stroke="#1a1208" stroke-width="0.6"/>
<circle cx="458.7" cy="199.1" r="4" fill="#6b5e4a" fill-opacity="0.6" stroke="#1a1208" stroke-width="0.6"/>
<circle cx="366.5" cy="314.6" r="4" fill="#6b5e4a" fill-opacity="0.6" stroke="#1a1208" stroke-width="0.6"/>
<circle cx="356.2" cy="270.3" r="4" fill="#6b5e4a" fill-opacity="0.6" stroke="#1a1208" stroke-width="0.6"/>
<circle cx="360.8" cy="237.1" r="4" fill="#6b5e4a" fill-opacity="0.6" stroke="#1a1208" stroke-width="0.6"/>
<circle cx="365.2" cy="89.9" r="6" fill="#8b1e3f" fill-opacity="1.0" stroke="#1a1208" stroke-width="1.2"/>
<circle cx="581.0" cy="186.8" r="4" fill="#6b5e4a" fill-opacity="0.6" stroke="#1a1208" stroke-width="0.6"/>
<circle cx="518.7" cy="150.6" r="4" fill="#6b5e4a" fill-opacity="0.6" stroke="#1a1208" stroke-width="0.6"/>
<circle cx="355.5" cy="232.6" r="4" fill="#6b5e4a" fill-opacity="0.6" stroke="#1a1208" stroke-width="0.6"/>
<circle cx="583.3" cy="121.6" r="4" fill="#6b5e4a" fill-opacity="0.6" stroke="#1a1208" stroke-width="0.6"/>
<circle cx="459.7" cy="121.9" r="4" fill="#6b5e4a" fill-opacity="0.6" stroke="#1a1208" stroke-width="0.6"/>
<circle cx="361.5" cy="301.2" r="4" fill="#6b5e4a" fill-opacity="0.6" stroke="#1a1208" stroke-width="0.6"/>
<circle cx="353.9" cy="231.5" r="4" fill="#6b5e4a" fill-opacity="0.6" stroke="#1a1208" stroke-width="0.6"/>
<circle cx="434.1" cy="393.7" r="4" fill="#6b5e4a" fill-opacity="0.6" stroke="#1a1208" stroke-width="0.6"/>
<circle cx="303.2" cy="283.0" r="4" fill="#6b5e4a" fill-opacity="0.6" stroke="#1a1208" stroke-width="0.6"/>
<circle cx="440.1" cy="401.9" r="4" fill="#6b5e4a" fill-opacity="0.6" stroke="#1a1208" stroke-width="0.6"/>
<circle cx="436.8" cy="165.5" r="4" fill="#6b5e4a" fill-opacity="0.6" stroke="#1a1208" stroke-width="0.6"/>
<circle cx="328.0" cy="335.1" r="4" fill="#6b5e4a" fill-opacity="0.6" stroke="#1a1208" stroke-width="0.6"/>
<circle cx="413.9" cy="244.9" r="4" fill="#6b5e4a" fill-opacity="0.6" stroke="#1a1208" stroke-width="0.6"/>
<circle cx="403.0" cy="206.5" r="4" fill="#6b5e4a" fill-opacity="0.6" stroke="#1a1208" stroke-width="0.6"/>
<circle cx="461.0" cy="117.8" r="6" fill="#c9962a" fill-opacity="1.0" stroke="#1a1208" stroke-width="1.2"/>
<circle cx="309.5" cy="389.9" r="4" fill="#6b5e4a" fill-opacity="0.6" stroke="#1a1208" stroke-width="0.6"/>
<circle cx="623.8" cy="237.9" r="6" fill="#2c4a6e" fill-opacity="1.0" stroke="#1a1208" stroke-width="1.2"/>
<circle cx="492.8" cy="136.1" r="4" fill="#6b5e4a" fill-opacity="0.6" stroke="#1a1208" stroke-width="0.6"/>
<circle cx="249.1" cy="274.0" r="6" fill="#b83a1e" fill-opacity="1.0" stroke="#1a1208" stroke-width="1.2"/>
<text x="375.2" y="84.9" text-anchor="start" font-family="Playfair Display" font-size="12" font-weight="700" fill="#8b1e3f">PHI</text>
<text x="571.0" y="191.8" text-anchor="end" font-family="Playfair Display" font-size="12" font-weight="400" fill="#1a1208">ATL</text>
<text x="593.3" y="126.6" text-anchor="start" font-family="Playfair Display" font-size="12" font-weight="400" fill="#1a1208">NYY</text>
<text x="444.1" y="398.7" text-anchor="start" font-family="Playfair Display" font-size="12" font-weight="400" fill="#1a1208">BAL</text>
<text x="450.1" y="394.9" text-anchor="start" font-family="Playfair Display" font-size="12" font-weight="400" fill="#1a1208">CHC</text>
<text x="471.0" y="122.8" text-anchor="start" font-family="Playfair Display" font-size="12" font-weight="700" fill="#c9962a">HOU</text>
<text x="633.8" y="242.9" text-anchor="start" font-family="Playfair Display" font-size="12" font-weight="700" fill="#2c4a6e">LAD</text>
<text x="259.1" y="267.0" text-anchor="start" font-family="Playfair Display" font-size="12" font-weight="700" fill="#b83a1e">NYM</text>
</svg>