<svg class="chart" viewBox="0 0 760 460" xmlns="http://www.w3.org/2000/svg" font-family="'Roboto Mono',monospace">
<rect x="0" y="0" width="760" height="460" fill="#ede5d2"/>
<text x="380.0" y="30" text-anchor="middle" font-family="Playfair Display" font-size="14" font-weight="700" fill="#1a1208">From the same starting point, two different outcomes</text>
<line x1="70" y1="375.0" x2="630" y2="375.0" stroke="#c8b99a" stroke-width="1" stroke-dasharray="3,3" opacity="1"/>
<text x="62" y="378.0" text-anchor="end" font-size="11" fill="#6b5e4a">0.40</text>
<line x1="70" y1="312.5" x2="630" y2="312.5" stroke="#c8b99a" stroke-width="1" stroke-dasharray="3,3" opacity="1"/>
<text x="62" y="315.5" text-anchor="end" font-size="11" fill="#6b5e4a">0.45</text>
<line x1="70" y1="250.00000000000003" x2="630" y2="250.00000000000003" stroke="#1a1208" stroke-width="1.5" stroke-dasharray="5,4" opacity="0.5"/>
<text x="62" y="253.00000000000003" text-anchor="end" font-size="11" fill="#6b5e4a">0.50</text>
<line x1="70" y1="187.49999999999997" x2="630" y2="187.49999999999997" stroke="#c8b99a" stroke-width="1" stroke-dasharray="3,3" opacity="1"/>
<text x="62" y="190.49999999999997" text-anchor="end" font-size="11" fill="#6b5e4a">0.55</text>
<line x1="70" y1="125.00000000000004" x2="630" y2="125.00000000000004" stroke="#c8b99a" stroke-width="1" stroke-dasharray="3,3" opacity="1"/>
<text x="62" y="128.00000000000006" text-anchor="end" font-size="11" fill="#6b5e4a">0.60</text>
<line x1="70" y1="62.49999999999999" x2="630" y2="62.49999999999999" stroke="#c8b99a" stroke-width="1" stroke-dasharray="3,3" opacity="1"/>
<text x="62" y="65.5" text-anchor="end" font-size="11" fill="#6b5e4a">0.65</text>
<text x="635" y="253.00000000000003" font-size="10" fill="#6b5e4a" font-style="italic">.500</text>
<text x="70.0" y="418" text-anchor="middle" font-size="11" fill="#1a1208">0</text>
<line x1="126.0" y1="50" x2="126.0" y2="400" stroke="#c8b99a" stroke-width="1" stroke-dasharray="3,3"/>
<text x="126.0" y="418" text-anchor="middle" font-size="11" fill="#1a1208">1</text>
<line x1="182.0" y1="50" x2="182.0" y2="400" stroke="#c8b99a" stroke-width="1" stroke-dasharray="3,3"/>
<text x="182.0" y="418" text-anchor="middle" font-size="11" fill="#1a1208">2</text>
<line x1="238.0" y1="50" x2="238.0" y2="400" stroke="#c8b99a" stroke-width="1" stroke-dasharray="3,3"/>
<text x="238.0" y="418" text-anchor="middle" font-size="11" fill="#1a1208">3</text>
<line x1="294.0" y1="50" x2="294.0" y2="400" stroke="#c8b99a" stroke-width="1" stroke-dasharray="3,3"/>
<text x="294.0" y="418" text-anchor="middle" font-size="11" fill="#1a1208">4</text>
<line x1="350.0" y1="50" x2="350.0" y2="400" stroke="#c8b99a" stroke-width="1" stroke-dasharray="3,3"/>
<text x="350.0" y="418" text-anchor="middle" font-size="11" fill="#1a1208">5</text>
<line x1="406.0" y1="50" x2="406.0" y2="400" stroke="#c8b99a" stroke-width="1" stroke-dasharray="3,3"/>
<text x="406.0" y="418" text-anchor="middle" font-size="11" fill="#1a1208">6</text>
<line x1="462.0" y1="50" x2="462.0" y2="400" stroke="#c8b99a" stroke-width="1" stroke-dasharray="3,3"/>
<text x="462.0" y="418" text-anchor="middle" font-size="11" fill="#1a1208">7</text>
<line x1="518.0" y1="50" x2="518.0" y2="400" stroke="#c8b99a" stroke-width="1" stroke-dasharray="3,3"/>
<text x="518.0" y="418" text-anchor="middle" font-size="11" fill="#1a1208">8</text>
<line x1="574.0" y1="50" x2="574.0" y2="400" stroke="#c8b99a" stroke-width="1" stroke-dasharray="3,3"/>
<text x="574.0" y="418" text-anchor="middle" font-size="11" fill="#1a1208">9</text>
<line x1="630.0" y1="50" x2="630.0" y2="400" stroke="#c8b99a" stroke-width="1" stroke-dasharray="3,3"/>
<text x="630.0" y="418" text-anchor="middle" font-size="11" fill="#1a1208">10</text>
<text x="350.0" y="448" text-anchor="middle" font-size="12" fill="#1a1208" font-weight="600">years after the analog season</text>
<text transform="rotate(-90,20,225.0)" x="20" y="225.0" text-anchor="middle" font-size="12" fill="#1a1208" font-weight="600">winning percentage</text>
<line x1="70" y1="50" x2="70" y2="400" stroke="#1a1208" stroke-width="2"/>
<line x1="70" y1="400" x2="630" y2="400" stroke="#1a1208" stroke-width="2"/>
<polyline points="70.0,296.2 126.0,327.5 182.0,203.8 238.0,288.8 294.0,211.2 350.0,272.5 406.0,188.7 462.0,350.0 518.0,312.5 574.0,180.0 630.0,180.0" fill="none" stroke="#2c4a6e" stroke-width="2.5"/>
<circle cx="70.0" cy="296.2" r="3.5" fill="#2c4a6e" stroke="#fff" stroke-width="1"/>
<circle cx="126.0" cy="327.5" r="3.5" fill="#2c4a6e" stroke="#fff" stroke-width="1"/>
<circle cx="182.0" cy="203.8" r="3.5" fill="#2c4a6e" stroke="#fff" stroke-width="1"/>
<circle cx="238.0" cy="288.8" r="3.5" fill="#2c4a6e" stroke="#fff" stroke-width="1"/>
<circle cx="294.0" cy="211.2" r="3.5" fill="#2c4a6e" stroke="#fff" stroke-width="1"/>
<circle cx="350.0" cy="272.5" r="3.5" fill="#2c4a6e" stroke="#fff" stroke-width="1"/>
<circle cx="406.0" cy="188.7" r="3.5" fill="#2c4a6e" stroke="#fff" stroke-width="1"/>
<circle cx="462.0" cy="350.0" r="3.5" fill="#2c4a6e" stroke="#fff" stroke-width="1"/>
<circle cx="518.0" cy="312.5" r="3.5" fill="#2c4a6e" stroke="#fff" stroke-width="1"/>
<circle cx="574.0" cy="180.0" r="3.5" fill="#2c4a6e" stroke="#fff" stroke-width="1"/>
<circle cx="630.0" cy="180.0" r="3.5" fill="#2c4a6e" stroke="#fff" stroke-width="1"/>
<polyline points="70.0,311.2 126.0,126.3 182.0,75.0 238.0,165.0 294.0,146.3 350.0,226.2 406.0,166.3 462.0,327.5 518.0,303.8 574.0,235.0 630.0,235.0" fill="none" stroke="#c9962a" stroke-width="2.5"/>
<circle cx="70.0" cy="311.2" r="3.5" fill="#c9962a" stroke="#fff" stroke-width="1"/>
<circle cx="126.0" cy="126.3" r="3.5" fill="#c9962a" stroke="#fff" stroke-width="1"/>
<circle cx="182.0" cy="75.0" r="3.5" fill="#c9962a" stroke="#fff" stroke-width="1"/>
<circle cx="238.0" cy="165.0" r="3.5" fill="#c9962a" stroke="#fff" stroke-width="1"/>
<circle cx="294.0" cy="146.3" r="3.5" fill="#c9962a" stroke="#fff" stroke-width="1"/>
<circle cx="350.0" cy="226.2" r="3.5" fill="#c9962a" stroke="#fff" stroke-width="1"/>
<circle cx="406.0" cy="166.3" r="3.5" fill="#c9962a" stroke="#fff" stroke-width="1"/>
<circle cx="462.0" cy="327.5" r="3.5" fill="#c9962a" stroke="#fff" stroke-width="1"/>
<circle cx="518.0" cy="303.8" r="3.5" fill="#c9962a" stroke="#fff" stroke-width="1"/>
<circle cx="574.0" cy="235.0" r="3.5" fill="#c9962a" stroke="#fff" stroke-width="1"/>
<circle cx="630.0" cy="235.0" r="3.5" fill="#c9962a" stroke="#fff" stroke-width="1"/>
<circle cx="70.0" cy="313.8" r="9" fill="#b83a1e" stroke="#1a1208" stroke-width="2"/>
<circle cx="70.0" cy="313.8" r="4" fill="#fff"/>
<text x="182.0" y="63.0" text-anchor="middle" font-family="Playfair Display" font-size="12" font-weight="700" fill="#c9962a">2016 WS champs</text>
<text x="630.0" y="168.0" text-anchor="end" font-family="Playfair Display" font-size="12" font-weight="700" fill="#2c4a6e">first playoffs in 21 yrs</text>
<text x="88.0" y="317.8" text-anchor="start" font-family="Playfair Display" font-size="13" font-weight="700" fill="#b83a1e">2026 Mets are here</text>
<rect x="640" y="60" width="115" height="100" fill="#fff" stroke="#c8b99a" stroke-width="1"/>
<line x1="648" y1="76" x2="668" y2="76" stroke="#c9962a" stroke-width="2.5"/>
<text x="673" y="80" font-size="11" fill="#1a1208">2014 Cubs</text>
<text x="648" y="96" font-size="9" fill="#6b5e4a" font-style="italic">d=1.02 from Mets</text>
<line x1="648" y1="116" x2="668" y2="116" stroke="#2c4a6e" stroke-width="2.5"/>
<text x="673" y="120" font-size="11" fill="#1a1208">2012 Mariners</text>
<text x="648" y="134" font-size="9" fill="#6b5e4a" font-style="italic">d=0.90 from Mets</text>
<circle cx="658" cy="152" r="6" fill="#b83a1e" stroke="#1a1208" stroke-width="1"/>
<text x="673" y="156" font-size="11" fill="#1a1208" font-weight="700">2026 Mets</text>
</svg>