<svg class="chart" viewBox="0 0 760 460" xmlns="http://www.w3.org/2000/svg" font-family="'Roboto Mono',monospace">
<rect x="0" y="0" width="760" height="460" fill="#ede5d2"/>
<text x="190.0" y="24" text-anchor="middle" font-family="Playfair Display" font-size="13" font-weight="700" fill="#1a1208">Steamboat snowfall by ENSO state</text>
<text x="190.0" y="40" text-anchor="middle" font-size="10" fill="#6b5e4a">The most obvious covariate doesn't help. The three groups look the same.</text>
<line x1="60" y1="361.66666666666663" x2="320.0" y2="361.66666666666663" stroke="#c8b99a" stroke-width="1" stroke-dasharray="3,3"/>
<text x="54" y="364.66666666666663" text-anchor="end" font-size="10" fill="#6b5e4a">2000</text>
<line x1="60" y1="305.0" x2="320.0" y2="305.0" stroke="#c8b99a" stroke-width="1" stroke-dasharray="3,3"/>
<text x="54" y="308.0" text-anchor="end" font-size="10" fill="#6b5e4a">3000</text>
<line x1="60" y1="248.33333333333331" x2="320.0" y2="248.33333333333331" stroke="#c8b99a" stroke-width="1" stroke-dasharray="3,3"/>
<text x="54" y="251.33333333333331" text-anchor="end" font-size="10" fill="#6b5e4a">4000</text>
<line x1="60" y1="191.66666666666666" x2="320.0" y2="191.66666666666666" stroke="#c8b99a" stroke-width="1" stroke-dasharray="3,3"/>
<text x="54" y="194.66666666666666" text-anchor="end" font-size="10" fill="#6b5e4a">5000</text>
<line x1="60" y1="135.0" x2="320.0" y2="135.0" stroke="#c8b99a" stroke-width="1" stroke-dasharray="3,3"/>
<text x="54" y="138.0" text-anchor="end" font-size="10" fill="#6b5e4a">6000</text>
<line x1="60" y1="78.33333333333334" x2="320.0" y2="78.33333333333334" stroke="#c8b99a" stroke-width="1" stroke-dasharray="3,3"/>
<text x="54" y="81.33333333333334" text-anchor="end" font-size="10" fill="#6b5e4a">7000</text>
<line x1="60" y1="50" x2="60" y2="390" stroke="#1a1208" stroke-width="2"/>
<line x1="60" y1="390" x2="320.0" y2="390" stroke="#1a1208" stroke-width="2"/>
<text transform="rotate(-90,20,220.0)" x="20" y="220.0" text-anchor="middle" font-size="11" fill="#1a1208" font-weight="600">snowfall, Nov–Apr (mm)</text>
<circle cx="102.3" cy="279.8" r="4" fill="#2c4a6e" fill-opacity="0.7" stroke="#1a1208" stroke-width="0.6"/>
<circle cx="104.7" cy="175.1" r="4" fill="#2c4a6e" fill-opacity="0.7" stroke="#1a1208" stroke-width="0.6"/>
<circle cx="112.9" cy="165.3" r="4" fill="#2c4a6e" fill-opacity="0.7" stroke="#1a1208" stroke-width="0.6"/>
<circle cx="102.6" cy="319.8" r="4" fill="#2c4a6e" fill-opacity="0.7" stroke="#1a1208" stroke-width="0.6"/>
<circle cx="103.5" cy="300.0" r="4" fill="#2c4a6e" fill-opacity="0.7" stroke="#1a1208" stroke-width="0.6"/>
<circle cx="105.3" cy="313.8" r="4" fill="#2c4a6e" fill-opacity="0.7" stroke="#1a1208" stroke-width="0.6"/>
<circle cx="96.2" cy="213.5" r="4" fill="#2c4a6e" fill-opacity="0.7" stroke="#1a1208" stroke-width="0.6"/>
<circle cx="103.6" cy="131.2" r="4" fill="#2c4a6e" fill-opacity="0.7" stroke="#1a1208" stroke-width="0.6"/>
<circle cx="106.3" cy="168.5" r="4" fill="#2c4a6e" fill-opacity="0.7" stroke="#1a1208" stroke-width="0.6"/>
<circle cx="109.9" cy="317.9" r="4" fill="#2c4a6e" fill-opacity="0.7" stroke="#1a1208" stroke-width="0.6"/>
<circle cx="94.2" cy="290.0" r="4" fill="#2c4a6e" fill-opacity="0.7" stroke="#1a1208" stroke-width="0.6"/>
<circle cx="98.9" cy="306.0" r="4" fill="#2c4a6e" fill-opacity="0.7" stroke="#1a1208" stroke-width="0.6"/>
<circle cx="94.1" cy="99.7" r="4" fill="#2c4a6e" fill-opacity="0.7" stroke="#1a1208" stroke-width="0.6"/>
<line x1="73.33333333333334" y1="237.0" x2="133.33333333333334" y2="237.0" stroke="#1a1208" stroke-width="3"/>
<text x="103.33333333333334" y="406" text-anchor="middle" font-family="Playfair Display" font-size="13" font-weight="700" fill="#2c4a6e">La Niña</text>
<text x="103.33333333333334" y="422" text-anchor="middle" font-size="10" fill="#6b5e4a">n=13 · mean 4200 mm</text>
<circle cx="197.0" cy="286.3" r="4" fill="#6b5e4a" fill-opacity="0.7" stroke="#1a1208" stroke-width="0.6"/>
<circle cx="194.4" cy="275.2" r="4" fill="#6b5e4a" fill-opacity="0.7" stroke="#1a1208" stroke-width="0.6"/>
<circle cx="179.7" cy="244.1" r="4" fill="#6b5e4a" fill-opacity="0.7" stroke="#1a1208" stroke-width="0.6"/>
<circle cx="200.9" cy="158.9" r="4" fill="#6b5e4a" fill-opacity="0.7" stroke="#1a1208" stroke-width="0.6"/>
<circle cx="200.5" cy="349.8" r="4" fill="#6b5e4a" fill-opacity="0.7" stroke="#1a1208" stroke-width="0.6"/>
<circle cx="193.5" cy="333.4" r="4" fill="#6b5e4a" fill-opacity="0.7" stroke="#1a1208" stroke-width="0.6"/>
<circle cx="192.6" cy="239.4" r="4" fill="#6b5e4a" fill-opacity="0.7" stroke="#1a1208" stroke-width="0.6"/>
<line x1="160.0" y1="269.6" x2="220.0" y2="269.6" stroke="#1a1208" stroke-width="3"/>
<text x="190.0" y="406" text-anchor="middle" font-family="Playfair Display" font-size="13" font-weight="700" fill="#6b5e4a">Neutral</text>
<text x="190.0" y="422" text-anchor="middle" font-size="10" fill="#6b5e4a">n=7 · mean 3624 mm</text>
<circle cx="268.9" cy="176.9" r="4" fill="#b83a1e" fill-opacity="0.7" stroke="#1a1208" stroke-width="0.6"/>
<circle cx="265.7" cy="352.7" r="4" fill="#b83a1e" fill-opacity="0.7" stroke="#1a1208" stroke-width="0.6"/>
<circle cx="277.3" cy="243.6" r="4" fill="#b83a1e" fill-opacity="0.7" stroke="#1a1208" stroke-width="0.6"/>
<circle cx="266.7" cy="292.0" r="4" fill="#b83a1e" fill-opacity="0.7" stroke="#1a1208" stroke-width="0.6"/>
<circle cx="269.7" cy="270.9" r="4" fill="#b83a1e" fill-opacity="0.7" stroke="#1a1208" stroke-width="0.6"/>
<circle cx="270.9" cy="269.1" r="4" fill="#b83a1e" fill-opacity="0.7" stroke="#1a1208" stroke-width="0.6"/>
<circle cx="266.1" cy="298.0" r="4" fill="#b83a1e" fill-opacity="0.7" stroke="#1a1208" stroke-width="0.6"/>
<circle cx="275.9" cy="240.3" r="4" fill="#b83a1e" fill-opacity="0.7" stroke="#1a1208" stroke-width="0.6"/>
<circle cx="275.3" cy="158.9" r="4" fill="#b83a1e" fill-opacity="0.7" stroke="#1a1208" stroke-width="0.6"/>
<circle cx="284.4" cy="210.6" r="4" fill="#b83a1e" fill-opacity="0.7" stroke="#1a1208" stroke-width="0.6"/>
<circle cx="277.1" cy="182.2" r="4" fill="#b83a1e" fill-opacity="0.7" stroke="#1a1208" stroke-width="0.6"/>
<line x1="246.66666666666663" y1="245.0" x2="306.66666666666663" y2="245.0" stroke="#1a1208" stroke-width="3"/>
<text x="276.66666666666663" y="406" text-anchor="middle" font-family="Playfair Display" font-size="13" font-weight="700" fill="#b83a1e">El Niño</text>
<text x="276.66666666666663" y="422" text-anchor="middle" font-size="10" fill="#6b5e4a">n=11 · mean 4058 mm</text>
<text x="550.0" y="24" text-anchor="middle" font-family="Playfair Display" font-size="13" font-weight="700" fill="#1a1208">% RMSE reduction by profile conditioning</text>
<text x="550.0" y="40" text-anchor="middle" font-size="10" fill="#6b5e4a">Leave-one-out cross-validation, conditioned-model vs climatology baseline</text>
<line x1="420.0" y1="50" x2="420.0" y2="390" stroke="#c8b99a" stroke-width="1" stroke-dasharray="3,3"/>
<text x="420.0" y="408" text-anchor="middle" font-size="10" fill="#1a1208">-10%</text>
<line x1="457.1428571428571" y1="50" x2="457.1428571428571" y2="390" stroke="#1a1208" stroke-width="2" stroke-dasharray="none"/>
<text x="457.1428571428571" y="408" text-anchor="middle" font-size="10" fill="#1a1208">+0%</text>
<line x1="494.2857142857143" y1="50" x2="494.2857142857143" y2="390" stroke="#c8b99a" stroke-width="1" stroke-dasharray="3,3"/>
<text x="494.2857142857143" y="408" text-anchor="middle" font-size="10" fill="#1a1208">+10%</text>
<line x1="531.4285714285714" y1="50" x2="531.4285714285714" y2="390" stroke="#c8b99a" stroke-width="1" stroke-dasharray="3,3"/>
<text x="531.4285714285714" y="408" text-anchor="middle" font-size="10" fill="#1a1208">+20%</text>
<line x1="568.5714285714286" y1="50" x2="568.5714285714286" y2="390" stroke="#c8b99a" stroke-width="1" stroke-dasharray="3,3"/>
<text x="568.5714285714286" y="408" text-anchor="middle" font-size="10" fill="#1a1208">+30%</text>
<line x1="605.7142857142858" y1="50" x2="605.7142857142858" y2="390" stroke="#c8b99a" stroke-width="1" stroke-dasharray="3,3"/>
<text x="605.7142857142858" y="408" text-anchor="middle" font-size="10" fill="#1a1208">+40%</text>
<line x1="642.8571428571429" y1="50" x2="642.8571428571429" y2="390" stroke="#c8b99a" stroke-width="1" stroke-dasharray="3,3"/>
<text x="642.8571428571429" y="408" text-anchor="middle" font-size="10" fill="#1a1208">+50%</text>
<line x1="680.0" y1="50" x2="680.0" y2="390" stroke="#c8b99a" stroke-width="1" stroke-dasharray="3,3"/>
<text x="680.0" y="408" text-anchor="middle" font-size="10" fill="#1a1208">+60%</text>
<text x="550.0" y="445" text-anchor="middle" font-size="11" fill="#1a1208" font-weight="600">% RMSE reduction (positive = better than climatology)</text>
<rect x="439.01714285714286" y="100" width="18.125714285714253" height="60" fill="#b83a1e" fill-opacity="0.85" stroke="#1a1208" stroke-width="1.5"/>
<text x="447.01714285714286" y="135.0" text-anchor="start" font-family="Playfair Display" font-size="22" font-weight="900" fill="#fff">-4.9%</text>
<text x="414.0" y="127.0" text-anchor="end" font-family="Roboto Mono" font-size="11" font-weight="600" fill="#1a1208">Steamboat snow</text>
<text x="414.0" y="141.0" text-anchor="end" font-family="Roboto Mono" font-size="11" font-weight="600" fill="#1a1208">+ ENSO state</text>
<rect x="457.1428571428571" y="190" width="179.5857142857144" height="60" fill="#2a6e3f" fill-opacity="0.85" stroke="#1a1208" stroke-width="1.5"/>
<text x="628.7285714285715" y="225.0" text-anchor="end" font-family="Playfair Display" font-size="22" font-weight="900" fill="#fff">+48.4%</text>
<text x="414.0" y="217.0" text-anchor="end" font-family="Roboto Mono" font-size="11" font-weight="600" fill="#1a1208">MLB league OPS</text>
<text x="414.0" y="231.0" text-anchor="end" font-family="Roboto Mono" font-size="11" font-weight="600" fill="#1a1208">+ profile match</text>
</svg>