<svg class="chart" viewBox="0 0 740 420" xmlns="http://www.w3.org/2000/svg" font-family="'Roboto Mono',monospace">
<rect x="0" y="0" width="740" height="420" fill="#ede5d2"/>
<line x1="60" y1="360" x2="610" y2="360" stroke="#c8b99a" stroke-width="1" stroke-dasharray="3,3"/>
<text x="52" y="364" text-anchor="end" font-size="11" fill="#6b5e4a">0%</text>
<line x1="60" y1="280.0" x2="610" y2="280.0" stroke="#c8b99a" stroke-width="1" stroke-dasharray="3,3"/>
<text x="52" y="284.0" text-anchor="end" font-size="11" fill="#6b5e4a">25%</text>
<line x1="60" y1="200.0" x2="610" y2="200.0" stroke="#c8b99a" stroke-width="1" stroke-dasharray="3,3"/>
<text x="52" y="204.0" text-anchor="end" font-size="11" fill="#6b5e4a">50%</text>
<line x1="60" y1="120.0" x2="610" y2="120.0" stroke="#c8b99a" stroke-width="1" stroke-dasharray="3,3"/>
<text x="52" y="124.0" text-anchor="end" font-size="11" fill="#6b5e4a">75%</text>
<line x1="60" y1="40.0" x2="610" y2="40.0" stroke="#c8b99a" stroke-width="1" stroke-dasharray="3,3"/>
<text x="52" y="44.0" text-anchor="end" font-size="11" fill="#6b5e4a">100%</text>
<line x1="60" y1="200.0" x2="610" y2="200.0" stroke="#b83a1e" stroke-width="1.5" stroke-dasharray="6,4" opacity="0.6"/>
<text x="616" y="204.0" font-size="10" fill="#b83a1e" font-weight="600">half-life</text>
<line x1="60.0" y1="356" x2="60.0" y2="364" stroke="#1a1208"/>
<text x="60.0" y="378" text-anchor="middle" font-size="11" fill="#1a1208">1</text>
<line x1="124.70588235294117" y1="356" x2="124.70588235294117" y2="364" stroke="#1a1208"/>
<text x="124.70588235294117" y="378" text-anchor="middle" font-size="11" fill="#1a1208">3</text>
<line x1="189.41176470588235" y1="356" x2="189.41176470588235" y2="364" stroke="#1a1208"/>
<text x="189.41176470588235" y="378" text-anchor="middle" font-size="11" fill="#1a1208">5</text>
<line x1="254.11764705882354" y1="356" x2="254.11764705882354" y2="364" stroke="#1a1208"/>
<text x="254.11764705882354" y="378" text-anchor="middle" font-size="11" fill="#1a1208">7</text>
<line x1="318.8235294117647" y1="356" x2="318.8235294117647" y2="364" stroke="#1a1208"/>
<text x="318.8235294117647" y="378" text-anchor="middle" font-size="11" fill="#1a1208">9</text>
<line x1="383.5294117647059" y1="356" x2="383.5294117647059" y2="364" stroke="#1a1208"/>
<text x="383.5294117647059" y="378" text-anchor="middle" font-size="11" fill="#1a1208">11</text>
<line x1="448.2352941176471" y1="356" x2="448.2352941176471" y2="364" stroke="#1a1208"/>
<text x="448.2352941176471" y="378" text-anchor="middle" font-size="11" fill="#1a1208">13</text>
<line x1="512.9411764705883" y1="356" x2="512.9411764705883" y2="364" stroke="#1a1208"/>
<text x="512.9411764705883" y="378" text-anchor="middle" font-size="11" fill="#1a1208">15</text>
<line x1="577.6470588235294" y1="356" x2="577.6470588235294" y2="364" stroke="#1a1208"/>
<text x="577.6470588235294" y="378" text-anchor="middle" font-size="11" fill="#1a1208">17</text>
<line x1="610.0" y1="356" x2="610.0" y2="364" stroke="#1a1208"/>
<text x="610.0" y="378" text-anchor="middle" font-size="11" fill="#1a1208">18</text>
<line x1="60" y1="40" x2="60" y2="360" stroke="#1a1208" stroke-width="2"/>
<line x1="60" y1="360" x2="610" y2="360" stroke="#1a1208" stroke-width="2"/>
<text x="335.0" y="408" text-anchor="middle" font-size="12" fill="#1a1208" font-weight="600">MLB year of service</text>
<text transform="rotate(-90,18,200.0)" x="18" y="200.0" text-anchor="middle" font-size="12" fill="#1a1208" font-weight="600">% of every debutant still in MLB (≥1 PA)</text>
<polyline points="60.0,40.0 92.4,126.6 124.7,142.0 157.1,168.5 189.4,184.4 221.8,201.7 254.1,220.0 286.5,246.9 318.8,267.1 351.2,272.9 383.5,288.8 415.9,306.6 448.2,319.1 480.6,335.0 512.9,342.7 545.3,349.9 577.6,353.7 610.0,355.7" fill="none" stroke="#b83a1e" stroke-width="2.2"/>
<circle cx="610.0" cy="355.7" r="3.5" fill="#b83a1e"/>
<line x1="620" y1="50" x2="638" y2="50" stroke="#b83a1e" stroke-width="2.2"/>
<text x="644" y="54" font-size="11" fill="#1a1208">C (n=665)</text>
<polyline points="60.0,40.0 92.4,119.8 124.7,146.9 157.1,168.5 189.4,198.8 221.8,215.6 254.1,239.5 286.5,251.5 318.8,271.4 351.2,277.8 383.5,295.4 415.9,301.7 448.2,315.3 480.6,327.3 512.9,336.9 545.3,344.0 577.6,350.4 610.0,353.6" fill="none" stroke="#2c4a6e" stroke-width="2.2"/>
<circle cx="610.0" cy="353.6" r="3.5" fill="#2c4a6e"/>
<line x1="620" y1="67" x2="638" y2="67" stroke="#2c4a6e" stroke-width="2.2"/>
<text x="644" y="71" font-size="11" fill="#1a1208">1B (n=401)</text>
<polyline points="60.0,40.0 92.4,112.7 124.7,139.2 157.1,166.3 189.4,189.4 221.8,212.6 254.1,222.5 286.5,250.9 318.8,265.5 351.2,284.0 383.5,299.8 415.9,309.8 448.2,324.3 480.6,331.6 512.9,341.5 545.3,348.8 577.6,354.0 610.0,357.4" fill="none" stroke="#c9962a" stroke-width="2.2"/>
<circle cx="610.0" cy="357.4" r="3.5" fill="#c9962a"/>
<line x1="620" y1="84" x2="638" y2="84" stroke="#c9962a" stroke-width="2.2"/>
<text x="644" y="88" font-size="11" fill="#1a1208">2B (n=484)</text>
<polyline points="60.0,40.0 92.4,111.6 124.7,131.0 157.1,164.6 189.4,192.2 221.8,213.8 254.1,231.7 286.5,242.9 318.8,259.3 351.2,280.2 383.5,294.4 415.9,312.3 448.2,324.2 480.6,338.4 512.9,346.6 545.3,351.0 577.6,354.0 610.0,357.8" fill="none" stroke="#2a6e3f" stroke-width="2.2"/>
<circle cx="610.0" cy="357.8" r="3.5" fill="#2a6e3f"/>
<line x1="620" y1="101" x2="638" y2="101" stroke="#2a6e3f" stroke-width="2.2"/>
<text x="644" y="105" font-size="11" fill="#1a1208">3B (n=429)</text>
<polyline points="60.0,40.0 92.4,104.8 124.7,121.2 157.1,150.8 189.4,168.0 221.8,187.7 254.1,209.8 286.5,224.6 318.8,239.4 351.2,264.0 383.5,275.5 415.9,296.8 448.2,313.2 480.6,322.3 512.9,332.1 545.3,343.6 577.6,348.5 610.0,354.3" fill="none" stroke="#8b1e3f" stroke-width="2.2"/>
<circle cx="610.0" cy="354.3" r="3.5" fill="#8b1e3f"/>
<line x1="620" y1="118" x2="638" y2="118" stroke="#8b1e3f" stroke-width="2.2"/>
<text x="644" y="122" font-size="11" fill="#1a1208">SS (n=390)</text>
<polyline points="60.0,40.0 92.4,123.0 124.7,149.4 157.1,175.2 189.4,202.2 221.8,221.7 254.1,244.3 286.5,260.7 318.8,273.9 351.2,294.0 383.5,305.3 415.9,321.0 448.2,330.5 480.6,339.3 512.9,346.8 545.3,351.2 577.6,352.5 610.0,354.3" fill="none" stroke="#5e4b8b" stroke-width="2.2"/>
<circle cx="610.0" cy="354.3" r="3.5" fill="#5e4b8b"/>
<line x1="620" y1="135" x2="638" y2="135" stroke="#5e4b8b" stroke-width="2.2"/>
<text x="644" y="139" font-size="11" fill="#1a1208">LF (n=509)</text>
<polyline points="60.0,40.0 92.4,105.1 124.7,118.0 157.1,138.8 189.4,163.8 221.8,201.1 254.1,225.4 286.5,245.5 318.8,261.9 351.2,277.0 383.5,291.3 415.9,308.5 448.2,319.2 480.6,328.5 512.9,337.8 545.3,346.4 577.6,350.0 610.0,355.0" fill="none" stroke="#1f6b78" stroke-width="2.2"/>
<circle cx="610.0" cy="355.0" r="3.5" fill="#1f6b78"/>
<line x1="620" y1="152" x2="638" y2="152" stroke="#1f6b78" stroke-width="2.2"/>
<text x="644" y="156" font-size="11" fill="#1a1208">CF (n=447)</text>
<polyline points="60.0,40.0 92.4,115.1 124.7,144.6 157.1,179.5 189.4,204.5 221.8,219.7 254.1,238.7 286.5,265.2 318.8,282.7 351.2,292.5 383.5,302.4 415.9,310.0 448.2,319.8 480.6,331.2 512.9,338.8 545.3,346.4 577.6,351.7 610.0,357.0" fill="none" stroke="#a85a1c" stroke-width="2.2"/>
<circle cx="610.0" cy="357.0" r="3.5" fill="#a85a1c"/>
<line x1="620" y1="169" x2="638" y2="169" stroke="#a85a1c" stroke-width="2.2"/>
<text x="644" y="173" font-size="11" fill="#1a1208">RF (n=422)</text>
<polyline points="60.0,40.0 92.4,118.2 124.7,165.6 157.1,196.4 189.4,243.9 221.8,241.5 254.1,281.8 286.5,288.9 318.8,293.6 351.2,310.2 383.5,317.3 415.9,319.7 448.2,324.4 480.6,333.9 512.9,341.0 545.3,343.4 577.6,345.8 610.0,350.5" fill="none" stroke="#6b5e4a" stroke-width="2.2"/>
<circle cx="610.0" cy="350.5" r="3.5" fill="#6b5e4a"/>
<line x1="620" y1="186" x2="638" y2="186" stroke="#6b5e4a" stroke-width="2.2"/>
<text x="644" y="190" font-size="11" fill="#1a1208">DH (n=135)</text>
</svg>