<svg class="chart" viewBox="0 0 720 400" xmlns="http://www.w3.org/2000/svg" font-family="'Roboto Mono',monospace">
<rect x="0" y="0" width="720" height="400" fill="#ede5d2"/>
<line x1="60" y1="340" x2="590" y2="340" stroke="#c8b99a" stroke-width="1" stroke-dasharray="3,3"/>
<text x="52" y="344" text-anchor="end" font-size="11" fill="#6b5e4a">0%</text>
<line x1="60" y1="265.0" x2="590" y2="265.0" stroke="#c8b99a" stroke-width="1" stroke-dasharray="3,3"/>
<text x="52" y="269.0" text-anchor="end" font-size="11" fill="#6b5e4a">25%</text>
<line x1="60" y1="190.0" x2="590" y2="190.0" stroke="#c8b99a" stroke-width="1" stroke-dasharray="3,3"/>
<text x="52" y="194.0" text-anchor="end" font-size="11" fill="#6b5e4a">50%</text>
<line x1="60" y1="115.0" x2="590" y2="115.0" stroke="#c8b99a" stroke-width="1" stroke-dasharray="3,3"/>
<text x="52" y="119.0" text-anchor="end" font-size="11" fill="#6b5e4a">75%</text>
<line x1="60" y1="40.0" x2="590" y2="40.0" stroke="#c8b99a" stroke-width="1" stroke-dasharray="3,3"/>
<text x="52" y="44.0" text-anchor="end" font-size="11" fill="#6b5e4a">100%</text>
<line x1="60" y1="190.0" x2="590" y2="190.0" stroke="#b83a1e" stroke-width="1.5" stroke-dasharray="6,4" opacity="0.6"/>
<text x="596" y="194.0" font-size="10" fill="#b83a1e" font-weight="600">half-life</text>
<text x="60.0" y="358" text-anchor="middle" font-size="11" fill="#1a1208">yrs 1-3</text>
<text x="166.0" y="358" text-anchor="middle" font-size="11" fill="#1a1208">yrs 4-6</text>
<text x="272.0" y="358" text-anchor="middle" font-size="11" fill="#1a1208">yrs 7-9</text>
<text x="378.0" y="358" text-anchor="middle" font-size="11" fill="#1a1208">yrs 10-12</text>
<text x="484.0" y="358" text-anchor="middle" font-size="11" fill="#1a1208">yrs 13-15</text>
<text x="590.0" y="358" text-anchor="middle" font-size="11" fill="#1a1208">yrs 16+</text>
<line x1="60" y1="40" x2="60" y2="340" stroke="#1a1208" stroke-width="2"/>
<line x1="60" y1="340" x2="590" y2="340" stroke="#1a1208" stroke-width="2"/>
<text x="325.0" y="388" text-anchor="middle" font-size="12" fill="#1a1208" font-weight="600">MLB years of service</text>
<text transform="rotate(-90,18,190.0)" x="18" y="190.0" text-anchor="middle" font-size="12" fill="#1a1208" font-weight="600">% of debut cohort still a regular (300+ PA season)</text>
<polyline points="60.0,40.0 166.0,40.0 272.0,40.0 378.0,40.0 484.0,60.0 590.0,260.0" fill="none" stroke="#b83a1e" stroke-width="2.2"/>
<circle cx="590.0" cy="260.0" r="3.5" fill="#b83a1e"/>
<line x1="600" y1="50" x2="618" y2="50" stroke="#b83a1e" stroke-width="2.2"/>
<text x="624" y="54" font-size="11" fill="#1a1208">C (n=15)</text>
<polyline points="60.0,40.0 166.0,40.0 272.0,40.0 378.0,83.6 484.0,175.5 590.0,267.4" fill="none" stroke="#2c4a6e" stroke-width="2.2"/>
<circle cx="590.0" cy="267.4" r="3.5" fill="#2c4a6e"/>
<line x1="600" y1="68" x2="618" y2="68" stroke="#2c4a6e" stroke-width="2.2"/>
<text x="624" y="72" font-size="11" fill="#1a1208">1B (n=62)</text>
<polyline points="60.0,40.0 166.0,45.0 272.0,45.0 378.0,105.0 484.0,210.0 590.0,285.0" fill="none" stroke="#c9962a" stroke-width="2.2"/>
<circle cx="590.0" cy="285.0" r="3.5" fill="#c9962a"/>
<line x1="600" y1="86" x2="618" y2="86" stroke="#c9962a" stroke-width="2.2"/>
<text x="624" y="90" font-size="11" fill="#1a1208">2B (n=60)</text>
<polyline points="60.0,40.0 166.0,40.0 272.0,45.8 378.0,109.2 484.0,201.5 590.0,293.9" fill="none" stroke="#2a6e3f" stroke-width="2.2"/>
<circle cx="590.0" cy="293.9" r="3.5" fill="#2a6e3f"/>
<line x1="600" y1="104" x2="618" y2="104" stroke="#2a6e3f" stroke-width="2.2"/>
<text x="624" y="108" font-size="11" fill="#1a1208">3B (n=52)</text>
<polyline points="60.0,40.0 166.0,40.0 272.0,40.0 378.0,80.0 484.0,188.0 590.0,288.0" fill="none" stroke="#8b1e3f" stroke-width="2.2"/>
<circle cx="590.0" cy="288.0" r="3.5" fill="#8b1e3f"/>
<line x1="600" y1="122" x2="618" y2="122" stroke="#8b1e3f" stroke-width="2.2"/>
<text x="624" y="126" font-size="11" fill="#1a1208">SS (n=75)</text>
<polyline points="60.0,40.0 166.0,40.0 272.0,45.1 378.0,121.4 484.0,212.9 590.0,284.1" fill="none" stroke="#5e4b8b" stroke-width="2.2"/>
<circle cx="590.0" cy="284.1" r="3.5" fill="#5e4b8b"/>
<line x1="600" y1="140" x2="618" y2="140" stroke="#5e4b8b" stroke-width="2.2"/>
<text x="624" y="144" font-size="11" fill="#1a1208">LF (n=59)</text>
<polyline points="60.0,40.0 166.0,40.0 272.0,46.0 378.0,82.0 484.0,160.0 590.0,250.0" fill="none" stroke="#1f6b78" stroke-width="2.2"/>
<circle cx="590.0" cy="250.0" r="3.5" fill="#1f6b78"/>
<line x1="600" y1="158" x2="618" y2="158" stroke="#1f6b78" stroke-width="2.2"/>
<text x="624" y="162" font-size="11" fill="#1a1208">CF (n=50)</text>
<polyline points="60.0,40.0 166.0,40.0 272.0,45.9 378.0,45.9 484.0,151.8 590.0,251.8" fill="none" stroke="#a85a1c" stroke-width="2.2"/>
<circle cx="590.0" cy="251.8" r="3.5" fill="#a85a1c"/>
<line x1="600" y1="176" x2="618" y2="176" stroke="#a85a1c" stroke-width="2.2"/>
<text x="624" y="180" font-size="11" fill="#1a1208">RF (n=51)</text>
<polyline points="60.0,40.0 166.0,40.0 272.0,40.0 378.0,102.5 484.0,165.0 590.0,240.0" fill="none" stroke="#6b5e4a" stroke-width="2.2"/>
<circle cx="590.0" cy="240.0" r="3.5" fill="#6b5e4a"/>
<line x1="600" y1="194" x2="618" y2="194" stroke="#6b5e4a" stroke-width="2.2"/>
<text x="624" y="198" font-size="11" fill="#1a1208">DH (n=24)</text>
</svg>